<?xml version="1.0" encoding="utf-8"?>
<!-- Generator: Adobe Illustrator 27.5.0, SVG Export Plug-In . SVG Version: 6.00 Build 0)  -->
<svg version="1.1" xmlns="http://www.w3.org/2000/svg" xmlns:xlink="http://www.w3.org/1999/xlink" x="0px" y="0px"
	 viewBox="0 0 2475 1650" style="enable-background:new 0 0 2475 1650;" xml:space="preserve">
<g id="Background">
	<rect style="fill:#FFFFFF;" width="2475" height="1650"/>
</g>
<g id="Illustration">
	<g>
		<g>
			<linearGradient id="SVGID_1_" gradientUnits="userSpaceOnUse" x1="923.3745" y1="-54.7289" x2="1587.0381" y2="1826.3351">
				<stop  offset="0" style="stop-color:#B37CFF"/>
				<stop  offset="1" style="stop-color:#F895E7"/>
			</linearGradient>
			<path style="opacity:0.32;fill:url(#SVGID_1_);" d="M2324.334,423.261c-56.914-111.722-181.881-195.736-303.515-169.96
				c-72.829,15.434-145.215,67.211-215.045,41.218c-50.334-18.736-78.743-71.867-121.052-105.204
				c-65.12-51.311-157.552-50.713-236.914-27.724c-79.361,22.989-152.007,65.266-230.411,91.402
				c-133.622,44.542-282.757,39.707-413.283-13.401c-57.299-23.314-110.934-55.489-169.266-76.016
				c-58.333-20.526-124.491-28.497-180.796-2.827c-56.305,25.67-96.709,92.811-77.168,152.061
				c3.896,11.814,10.008,23.455,9.209,35.883c-1.28,19.929-20.316,34.525-39.572,38.957c-19.255,4.432-39.322,1.538-59.064,2.044
				c-88.591,2.272-167.761,83.999-168.181,173.616c-0.349,74.314,44.976,139.618,83.724,202.763
				c38.747,63.145,73.573,138.912,50.49,209.467c-13.687,41.837-45.796,74.565-66.832,113.158
				c-54.535,100.054-44.28,244.263,50.766,316.93c59.14,45.215,237.629,75.484,303.433,75.484c152.692,0,305.383,0,458.075,0
				c172.722,0,345.444,0,518.166,0c125.894,0,252.104,8.729,377.683,0c207.423-14.419,346.482-245.155,417.176-413.884
				c13.9-33.176,25.579-67.283,34.197-102.173c22.795-92.279,27.592-190.979,30.308-285.662
				C2378.951,592.676,2364.045,501.212,2324.334,423.261z"/>
			
				<linearGradient id="SVGID_00000130645366406575683350000002719025187523971980_" gradientUnits="userSpaceOnUse" x1="955.5667" y1="114.0176" x2="1519.3958" y2="1712.1141">
				<stop  offset="0" style="stop-color:#B37CFF"/>
				<stop  offset="1" style="stop-color:#F895E7"/>
			</linearGradient>
			<path style="opacity:0.35;fill:url(#SVGID_00000130645366406575683350000002719025187523971980_);" d="M2239.473,509.861
				c-54.119-103.794-172.948-181.847-288.608-157.9c-69.252,14.339-138.083,62.442-204.484,38.293
				c-47.862-17.406-74.876-66.768-115.106-97.739c-61.922-47.67-149.814-47.115-225.278-25.757
				c-75.464,21.358-144.542,60.635-219.095,84.916c-127.059,41.382-268.87,36.889-392.985-12.45
				c-74.754-29.717-132.814-70.576-216.592-48.816c-21.508,5.586-42.79,13.233-60.892,25.925
				c-48.506,34.01-66.483,97.92-112.314,135.333c-50.616,41.318-108.174,25.861-166.204,44.871
				c-30.105,9.862-58.324,29.834-70.242,58.698c-7.555,18.297-8.062,38.69-6.081,58.336c5.899,58.504,27.271,103.598,76.295,136.32
				c47.877,31.957,82.258,83.776,92.611,139.867c3.126,16.937,4.157,34.554-0.093,51.252c-4.419,17.361-14.266,32.804-23.458,48.237
				c-29.666,49.805-68.004,99.549-89.2,153.761c-39.253,100.389,16.923,205.753,106.724,258.046
				c62.389,36.331,135.338,50.329,207.115,60.059c97.055,13.157,195.047,19.61,293.014,19.293
				c43.369-0.141,84.195,9.062,127.839,10.387c50.573,1.536,101.159-1.187,151.735-1.187c117.434,0,234.869,0,352.303,0
				c55.338,0,110.648,3.86,164.672-7.965c54.081-11.837,104.385-35.997,153.141-61.15c90.351-46.611,175.889-98.971,256.134-160.702
				c78.683-60.529,147.439-122.711,194.544-211.167c46.544-87.405,58.205-174.158,64.096-270.856
				C2294.618,686.58,2282.459,592.306,2239.473,509.861z"/>
		</g>
		<g>
			
				<linearGradient id="SVGID_00000099636174336927035730000009721242390595075769_" gradientUnits="userSpaceOnUse" x1="1723.1917" y1="1573.6609" x2="2199.1892" y2="187.6658">
				<stop  offset="0" style="stop-color:#B37CFF"/>
				<stop  offset="1" style="stop-color:#F895E7"/>
			</linearGradient>
			<path style="fill:url(#SVGID_00000099636174336927035730000009721242390595075769_);" d="M1566.907,1471.303
				c0,0,123.935-756.372,471.888-1186.546c23.391-28.917,71.103-21.321,84.042,13.491
				C2209.36,531.029,2396.553,1241.819,1566.907,1471.303z"/>
			<path style="opacity:0.5;fill:#FFFFFF;" d="M1640.285,1418.443c-1.75,1.896,0.981,4.55,2.983,2.9
				c73.807-60.844,354.463-354.678,422.309-909.519c0.218-1.782-2.529-2.284-2.907-0.528
				C2034.844,640.665,1917.007,1118.649,1640.285,1418.443z"/>
		</g>
		<g>
			<g>
				
					<linearGradient id="SVGID_00000035514939859614333170000014038612649474577084_" gradientUnits="userSpaceOnUse" x1="-368.7735" y1="1522.7687" x2="-816.0461" y2="73.1274" gradientTransform="matrix(0.9799 0.1995 -0.1995 0.9799 1188.8018 148.3412)">
					<stop  offset="0" style="stop-color:#7A2DDB"/>
					<stop  offset="1" style="stop-color:#7077FF"/>
				</linearGradient>
				<path style="fill:url(#SVGID_00000035514939859614333170000014038612649474577084_);" d="M689.269,959.976
					c-11.84-101.271-77.717-203.232-123.485-301.231c-24.198-51.815-43.271-104.587-49.522-161.747
					c-6.216-56.832,3.259-122.727-35.176-170.529c-77.439-96.299-176.843-15.641-219.066,84.354
					c-48.998,116.038-26.847,277.69-22.511,405.647c2.615,77.139-2.972,158.522,8.147,234.815
					c18.42,126.387,69.29,203.715,143.465,245.044c71.145,39.64,159.708,27.668,217.882-29.329
					C661.557,1215.511,708.37,1123.348,689.269,959.976z"/>
				<path style="opacity:0.5;fill:#FFFFFF;" d="M552.573,1480.864c-0.846-0.172-1.601-0.73-1.992-1.573
					c-22.512-48.599-77.055-183.715-122.342-347.237c-33.243-120.033-57.103-237.979-70.918-350.564
					c-17.275-140.781-18.802-273.534-4.54-394.572c0.181-1.541,1.579-2.645,3.12-2.462c1.552,0.169,2.646,1.578,2.463,3.12
					c-14.207,120.574-12.683,252.853,4.53,393.164c13.776,112.295,37.574,229.954,70.735,349.707
					c45.187,163.188,99.597,297.997,122.055,346.48c0.653,1.409,0.04,3.08-1.37,3.732
					C553.749,1480.922,553.141,1480.98,552.573,1480.864z"/>
			</g>
		</g>
		<g>
			
				<linearGradient id="SVGID_00000119839566895596824420000015686827558648914311_" gradientUnits="userSpaceOnUse" x1="108.8451" y1="599.1549" x2="615.8936" y2="2240.3169">
				<stop  offset="0" style="stop-color:#53D8FF"/>
				<stop  offset="1" style="stop-color:#3840F7"/>
			</linearGradient>
			<path style="fill:url(#SVGID_00000119839566895596824420000015686827558648914311_);" d="M371.764,1450.213
				c-95.126,34.226-239.574-93.63-243.962-206.08c-1.719-44.052,18.972-62.282,12.393-124.829
				c-7.982-75.89-42.41-86.771-41.917-146.037c0.433-52.128,27.782-129.767,87.281-148.858
				c55.588-17.836,118.043,22.234,142.518,68.015c25.725,48.12-3.474,78.299,21.57,133.403
				c24.763,54.486,66.126,53.177,96.526,92.354C513.091,1204.421,470.806,1414.578,371.764,1450.213z"/>
			<path style="opacity:0.3;fill:#FFFFFF;" d="M193.907,886.137c13.27,42.835,26.155,85.725,38.986,128.603l19.39,64.258
				l9.737,32.105c3.307,10.681,6.649,21.35,9.873,32.056c3.199,10.716,6.651,21.345,10.017,32.004l5.072,15.982
				c1.627,5.349,3.389,10.65,5.102,15.968l10.338,31.896c3.644,10.559,7.107,21.184,10.67,31.777
				c14.475,42.287,29.513,84.356,46.223,125.926l-2.551,1.2c-5.144-9.973-10.173-20.021-15.174-30.095
				c-2.598-4.998-4.801-10.159-7.121-15.274l-6.914-15.373l-3.436-7.7c-1.141-2.57-2.277-5.141-3.317-7.747l-6.403-15.586
				c-4.27-10.391-8.566-20.785-12.448-31.319c-3.95-10.511-8.002-20.99-11.872-31.536l-11.146-31.785
				c-1.843-5.303-3.759-10.583-5.493-15.92l-5.219-16.007c-3.464-10.676-7.017-21.327-10.312-32.053
				c-13.618-42.779-25.65-86.026-36.97-129.44c-5.662-21.708-10.948-43.512-15.976-65.376c-4.941-21.888-9.781-43.79-13.795-65.897
				L193.907,886.137z"/>
			<path style="fill:#FFFFFF;" d="M195.343,948.756c-26.727-15.569-46.724-44.598-46.924-44.889l1.164-0.795
				c0.198,0.289,20.022,29.06,46.468,44.465L195.343,948.756z"/>
			<path style="fill:#FFFFFF;" d="M197.849,982.942c-39.172-16.669-61.391-50.646-61.611-50.986l1.185-0.764
				c0.218,0.338,22.217,33.959,60.978,50.453L197.849,982.942z"/>
			<path style="fill:#FFFFFF;" d="M204.173,1024.965c-47.372-13.442-71.848-56.938-72.09-57.377l1.234-0.68
				c0.239,0.433,24.447,43.423,71.24,56.7L204.173,1024.965z"/>
			<path style="fill:#FFFFFF;" d="M217.735,1062.982c-46.481-6.169-76.774-48.428-77.074-48.853l1.151-0.813
				c0.298,0.422,30.249,42.182,76.109,48.269L217.735,1062.982z"/>
			<path style="fill:#FFFFFF;" d="M227.896,1097.382c-30.152-1.894-59.767-25.117-60.062-25.351l0.875-1.106
				c0.292,0.232,29.57,23.185,59.275,25.05L227.896,1097.382z"/>
			<path style="fill:#FFFFFF;" d="M237.18,1138.159c-41.977-3.005-61.768-21.693-61.963-21.881l0.979-1.014
				c0.193,0.185,19.657,18.522,61.083,21.488L237.18,1138.159z"/>
			<path style="fill:#FFFFFF;" d="M255.346,1187.187c-43.717,0.44-78.565-36.36-78.912-36.732l1.03-0.961
				c0.342,0.367,34.78,36.717,77.867,36.282L255.346,1187.187z"/>
			<path style="fill:#FFFFFF;" d="M266.177,1236.125c-52.97,1.796-90.882-42.52-91.258-42.968l1.078-0.908
				c0.373,0.443,37.858,44.239,90.132,42.468L266.177,1236.125z"/>
			<path style="fill:#FFFFFF;" d="M286.317,1288.198c-79.167-5.51-119.366-58.364-119.762-58.897l1.13-0.843
				c0.393,0.529,40.234,52.871,118.731,58.335L286.317,1288.198z"/>
			<path style="fill:#FFFFFF;" d="M304.692,1348.768c-82.305,3.393-132.645-73.171-133.144-73.945l1.185-0.764
				c0.495,0.767,50.413,76.659,131.901,73.3L304.692,1348.768z"/>
			<path style="fill:#FFFFFF;" d="M324.768,1404.142c-42.85,3.144-77.847-19.072-99.661-38.263
				c-23.603-20.764-37.283-42.568-37.419-42.785l1.197-0.745c0.538,0.864,54.681,86.336,135.78,80.387L324.768,1404.142z"/>
		</g>
		<g>
			
				<linearGradient id="SVGID_00000132079794868139362760000004960941374730997150_" gradientUnits="userSpaceOnUse" x1="1650.7231" y1="1420.3911" x2="1199.0624" y2="789.6946">
				<stop  offset="0" style="stop-color:#FDF53F"/>
				<stop  offset="1" style="stop-color:#D93C65"/>
			</linearGradient>
			
				<rect x="1343.917" y="914.124" style="fill:url(#SVGID_00000132079794868139362760000004960941374730997150_);" width="292.555" height="564.213"/>
			
				<linearGradient id="SVGID_00000150086507690285689640000011278901077599175296_" gradientUnits="userSpaceOnUse" x1="855.1882" y1="974.9017" x2="1653.1892" y2="794.902">
				<stop  offset="0" style="stop-color:#233894"/>
				<stop  offset="0.9964" style="stop-color:#DD397A"/>
			</linearGradient>
			<path style="fill:url(#SVGID_00000150086507690285689640000011278901077599175296_);" d="M1675.655,962.883h-345.669
				l-63.264-254.244h334.922l87.628,232.919C1693.886,951.506,1686.622,962.883,1675.655,962.883z"/>
			
				<linearGradient id="SVGID_00000109731171741328352910000002671469769915933578_" gradientUnits="userSpaceOnUse" x1="1415.8955" y1="487.7188" x2="1429.338" y2="817.0594">
				<stop  offset="0" style="stop-color:#233894"/>
				<stop  offset="0.9964" style="stop-color:#DD397A"/>
			</linearGradient>
			<path style="fill:url(#SVGID_00000109731171741328352910000002671469769915933578_);" d="M1601.644,712.121l-353.069,13.931
				V698.19l329.925-13.931c12.782,0,23.143,7.564,23.143,16.894V712.121z"/>
			<g style="opacity:0.89;">
				<path style="fill:#FFFFFF;" d="M1573.529,1325.094h-164.928c-0.62,0-1.123-0.503-1.123-1.123V1068.49
					c0-0.62,0.503-1.123,1.123-1.123h164.928c0.62,0,1.123,0.503,1.123,1.123v255.481
					C1574.652,1324.591,1574.15,1325.094,1573.529,1325.094z"/>
				<g>
					
						<linearGradient id="SVGID_00000094587936587266317060000012285415500498683021_" gradientUnits="userSpaceOnUse" x1="1453.7714" y1="820.074" x2="1448.4926" y2="2023.6184">
						<stop  offset="0" style="stop-color:#233894"/>
						<stop  offset="0.9964" style="stop-color:#DD397A"/>
					</linearGradient>
					<path style="fill:url(#SVGID_00000094587936587266317060000012285415500498683021_);" d="M1483.951,1311.162h-63.658
						c-0.345,0-0.624-0.279-0.624-0.624v-228.616c0-0.345,0.28-0.624,0.624-0.624h63.658c0.345,0,0.624,0.279,0.624,0.624v228.616
						C1484.575,1310.883,1484.295,1311.162,1483.951,1311.162z"/>
					
						<linearGradient id="SVGID_00000157996158122849959540000007261096043947798205_" gradientUnits="userSpaceOnUse" x1="1531.6578" y1="820.4147" x2="1526.379" y2="2023.9591">
						<stop  offset="0" style="stop-color:#233894"/>
						<stop  offset="0.9964" style="stop-color:#DD397A"/>
					</linearGradient>
					<path style="fill:url(#SVGID_00000157996158122849959540000007261096043947798205_);" d="M1561.839,1311.162h-63.658
						c-0.345,0-0.624-0.279-0.624-0.624v-228.617c0-0.345,0.28-0.624,0.624-0.624h63.658c0.345,0,0.624,0.279,0.624,0.624v228.616
						C1562.463,1310.883,1562.183,1311.162,1561.839,1311.162z"/>
				</g>
			</g>
			
				<linearGradient id="SVGID_00000162313241573522444590000009167053848312353721_" gradientUnits="userSpaceOnUse" x1="229.3777" y1="1512.6377" x2="858.6227" y2="669.8322">
				<stop  offset="0" style="stop-color:#FDF53F"/>
				<stop  offset="1" style="stop-color:#D93C65"/>
			</linearGradient>
			<path style="fill:url(#SVGID_00000162313241573522444590000009167053848312353721_);" d="M329.509,1478.337h282.379V914.124
				H319.332v554.037C319.332,1473.781,323.889,1478.337,329.509,1478.337z"/>
			
				<linearGradient id="SVGID_00000183928345405641261650000016917532083090560184_" gradientUnits="userSpaceOnUse" x1="692.6126" y1="952.9167" x2="137.0108" y2="665.7943">
				<stop  offset="0" style="stop-color:#233894"/>
				<stop  offset="0.9964" style="stop-color:#DD397A"/>
			</linearGradient>
			<path style="fill:url(#SVGID_00000183928345405641261650000016917532083090560184_);" d="M280.149,962.883h345.669
				l62.716-237.097L354.16,708.638l-87.628,232.919C261.918,951.506,269.183,962.883,280.149,962.883z"/>
			
				<linearGradient id="SVGID_00000017516588115312994270000006937738100126711716_" gradientUnits="userSpaceOnUse" x1="519.5833" y1="422.5102" x2="549.8738" y2="768.6901">
				<stop  offset="0" style="stop-color:#233894"/>
				<stop  offset="0.9964" style="stop-color:#DD397A"/>
			</linearGradient>
			<path style="fill:url(#SVGID_00000017516588115312994270000006937738100126711716_);" d="M354.161,712.121l380.308,13.931V698.19
				L379.09,684.259c-13.768,0-24.929,7.564-24.929,16.894V712.121z"/>
			<g style="opacity:0.89;">
				<path style="fill:#FFFFFF;" d="M382.275,1325.094h164.928c0.62,0,1.123-0.503,1.123-1.123V1068.49
					c0-0.62-0.503-1.123-1.123-1.123H382.275c-0.62,0-1.123,0.503-1.123,1.123v255.481
					C381.152,1324.591,381.655,1325.094,382.275,1325.094z"/>
				<g>
					
						<linearGradient id="SVGID_00000021093418351952521520000000105767756470114724_" gradientUnits="userSpaceOnUse" x1="505.3512" y1="815.9131" x2="500.0724" y2="2019.4575">
						<stop  offset="0" style="stop-color:#233894"/>
						<stop  offset="0.9964" style="stop-color:#DD397A"/>
					</linearGradient>
					<path style="fill:url(#SVGID_00000021093418351952521520000000105767756470114724_);" d="M471.854,1311.162h63.658
						c0.345,0,0.624-0.279,0.624-0.624v-228.616c0-0.345-0.279-0.624-0.624-0.624h-63.658c-0.345,0-0.624,0.279-0.624,0.624v228.616
						C471.23,1310.883,471.509,1311.162,471.854,1311.162z"/>
					
						<linearGradient id="SVGID_00000056392920697047093540000001940100963461444286_" gradientUnits="userSpaceOnUse" x1="427.4647" y1="815.5725" x2="422.1859" y2="2019.1169">
						<stop  offset="0" style="stop-color:#233894"/>
						<stop  offset="0.9964" style="stop-color:#DD397A"/>
					</linearGradient>
					<path style="fill:url(#SVGID_00000056392920697047093540000001940100963461444286_);" d="M393.966,1311.162h63.658
						c0.345,0,0.624-0.279,0.624-0.624v-228.616c0-0.345-0.28-0.624-0.624-0.624h-63.658c-0.345,0-0.624,0.279-0.624,0.624v228.616
						C393.342,1310.883,393.621,1311.162,393.966,1311.162z"/>
				</g>
			</g>
			
				<linearGradient id="SVGID_00000026852126584111293110000000196361152669136044_" gradientUnits="userSpaceOnUse" x1="638.0342" y1="772.3391" x2="1445.2438" y2="1729.7268">
				<stop  offset="0" style="stop-color:#FDF53F"/>
				<stop  offset="1" style="stop-color:#D93C65"/>
			</linearGradient>
			<path style="fill:url(#SVGID_00000026852126584111293110000000196361152669136044_);" d="M977.902,561.236
				c0,0-396.623,299.427-406.449,299.427v622.053c0,11.334,9.188,20.523,20.523,20.523h774.185c10.046,0,18.189-8.144,18.189-18.189
				V860.663L977.902,561.236z"/>
			<g>
				
					<linearGradient id="SVGID_00000165217869751252023880000012422563606478427312_" gradientUnits="userSpaceOnUse" x1="950.6797" y1="1325.0029" x2="965.83" y2="1548.4716">
					<stop  offset="0" style="stop-color:#233894"/>
					<stop  offset="0.9964" style="stop-color:#DD397A"/>
				</linearGradient>
				<path style="fill:url(#SVGID_00000165217869751252023880000012422563606478427312_);" d="M1085.748,1478.337H833.711v-39.585
					c0-1.751,1.419-3.171,3.17-3.171h245.697c1.751,0,3.17,1.419,3.17,3.17V1478.337z"/>
				
					<linearGradient id="SVGID_00000028294585734521667420000002908429948529805199_" gradientUnits="userSpaceOnUse" x1="950.6797" y1="1358.9124" x2="965.83" y2="1582.381">
					<stop  offset="0" style="stop-color:#233894"/>
					<stop  offset="0.9964" style="stop-color:#DD397A"/>
				</linearGradient>
				<path style="fill:url(#SVGID_00000028294585734521667420000002908429948529805199_);" d="M1085.748,1512.246H833.711v-39.585
					c0-1.751,1.419-3.17,3.17-3.17h245.697c1.751,0,3.17,1.419,3.17,3.17V1512.246z"/>
				
					<linearGradient id="SVGID_00000116197122880163961590000007709603358431554713_" gradientUnits="userSpaceOnUse" x1="961.7109" y1="817.8439" x2="956.4317" y2="2021.488">
					<stop  offset="0" style="stop-color:#233894"/>
					<stop  offset="0.9964" style="stop-color:#DD397A"/>
				</linearGradient>
				<path style="fill:url(#SVGID_00000116197122880163961590000007709603358431554713_);" d="M1045.742,1435.581H873.717V1103.55
					c0-1.966,1.594-3.56,3.56-3.56h164.905c1.966,0,3.56,1.594,3.56,3.56V1435.581z"/>
				<path style="opacity:0.89;fill:#FFFFFF;" d="M1033.595,1077.402H885.864c-6.708,0-12.146-5.438-12.146-12.146v-10.609
					c0-6.382,4.938-11.675,11.305-12.117l147.731-10.262c7.023-0.488,12.988,5.078,12.988,12.117v20.871
					C1045.742,1071.964,1040.304,1077.402,1033.595,1077.402z"/>
				<g>
					
						<linearGradient id="SVGID_00000099641421458746622780000004074750703926232730_" gradientUnits="userSpaceOnUse" x1="1308.9486" y1="600.5623" x2="1034.4927" y2="1309.5723">
						<stop  offset="0" style="stop-color:#233894"/>
						<stop  offset="0.9964" style="stop-color:#DD397A"/>
					</linearGradient>
					<path style="opacity:0.9;fill:url(#SVGID_00000099641421458746622780000004074750703926232730_);" d="M1182.351,928.322h-1.635
						c-42.486,0-79.682,30.079-79.682,72.566v76.514h81.316V928.322z"/>
					
						<linearGradient id="SVGID_00000068645279706095110000000017584006315840436125_" gradientUnits="userSpaceOnUse" x1="1372.7672" y1="625.2669" x2="1098.3104" y2="1334.2788">
						<stop  offset="0" style="stop-color:#233894"/>
						<stop  offset="0.9964" style="stop-color:#DD397A"/>
					</linearGradient>
					<path style="opacity:0.9;fill:url(#SVGID_00000068645279706095110000000017584006315840436125_);" d="M1101.035,1099.99
						v225.103c0,7.58,8.898,19.331,16.477,19.331h64.839V1099.99H1101.035z"/>
					
						<linearGradient id="SVGID_00000165233145401483463440000005075587797577520038_" gradientUnits="userSpaceOnUse" x1="1385.3591" y1="630.1412" x2="1110.903" y2="1339.1516">
						<stop  offset="0" style="stop-color:#233894"/>
						<stop  offset="0.9964" style="stop-color:#DD397A"/>
					</linearGradient>
					<path style="opacity:0.9;fill:url(#SVGID_00000165233145401483463440000005075587797577520038_);" d="M1204.554,928.322h-4.133
						v149.08h81.317v-76.514C1281.738,958.402,1247.041,928.322,1204.554,928.322z"/>
					
						<linearGradient id="SVGID_00000041260479628663354240000009160946071094157464_" gradientUnits="userSpaceOnUse" x1="1456.5242" y1="657.6876" x2="1182.0675" y2="1366.6992">
						<stop  offset="0" style="stop-color:#233894"/>
						<stop  offset="0.9964" style="stop-color:#DD397A"/>
					</linearGradient>
					<path style="opacity:0.9;fill:url(#SVGID_00000041260479628663354240000009160946071094157464_);" d="M1200.421,1344.425
						h67.337c7.58,0,13.979-11.751,13.979-19.331V1099.99h-81.317V1344.425z"/>
				</g>
				<g>
					
						<linearGradient id="SVGID_00000089541409676892258850000013447561118495712135_" gradientUnits="userSpaceOnUse" x1="850.8939" y1="697.982" x2="570.7211" y2="1292.6359">
						<stop  offset="0" style="stop-color:#233894"/>
						<stop  offset="0.9964" style="stop-color:#DD397A"/>
					</linearGradient>
					<path style="opacity:0.9;fill:url(#SVGID_00000089541409676892258850000013447561118495712135_);" d="M734.468,928.322h-1.635
						c-42.487,0-79.682,30.079-79.682,72.566v76.514h81.317V928.322z"/>
					
						<linearGradient id="SVGID_00000130637551474939132240000004704066354495483293_" gradientUnits="userSpaceOnUse" x1="924.4679" y1="732.6461" x2="644.2948" y2="1327.3005">
						<stop  offset="0" style="stop-color:#233894"/>
						<stop  offset="0.9964" style="stop-color:#DD397A"/>
					</linearGradient>
					<path style="opacity:0.9;fill:url(#SVGID_00000130637551474939132240000004704066354495483293_);" d="M653.151,1099.99v225.103
						c0,7.58,8.898,19.331,16.477,19.331h64.839V1099.99H653.151z"/>
					
						<linearGradient id="SVGID_00000057125051911340294190000007224829576711403916_" gradientUnits="userSpaceOnUse" x1="921.2278" y1="731.1213" x2="641.0552" y2="1325.7749">
						<stop  offset="0" style="stop-color:#233894"/>
						<stop  offset="0.9964" style="stop-color:#DD397A"/>
					</linearGradient>
					<path style="opacity:0.9;fill:url(#SVGID_00000057125051911340294190000007224829576711403916_);" d="M756.671,928.322h-4.132
						v149.08h81.316v-76.514C833.854,958.402,799.157,928.322,756.671,928.322z"/>
					
						<linearGradient id="SVGID_00000012447518750487240350000018146077412442434205_" gradientUnits="userSpaceOnUse" x1="1002.9027" y1="769.6016" x2="722.7296" y2="1364.2562">
						<stop  offset="0" style="stop-color:#233894"/>
						<stop  offset="0.9964" style="stop-color:#DD397A"/>
					</linearGradient>
					<path style="opacity:0.9;fill:url(#SVGID_00000012447518750487240350000018146077412442434205_);" d="M752.538,1344.425h67.337
						c7.579,0,13.979-11.751,13.979-19.331V1099.99h-81.316V1344.425z"/>
				</g>
				<path style="fill:#FFFFFF;" d="M935.843,1345.367h-25.964c-8.658,0-15.701-7.043-15.701-15.701v-191.938
					c0-8.658,7.043-15.701,15.701-15.701h25.964c8.658,0,15.701,7.043,15.701,15.701v191.938
					C951.544,1338.324,944.5,1345.367,935.843,1345.367z M909.879,1123.912c-7.618,0-13.816,6.198-13.816,13.816v191.938
					c0,7.617,6.198,13.816,13.816,13.816h25.964c7.618,0,13.816-6.198,13.816-13.816v-191.938c0-7.618-6.198-13.816-13.816-13.816
					H909.879z"/>
				<path style="fill:#FFFFFF;" d="M1008.294,1345.367h-25.964c-8.658,0-15.701-7.043-15.701-15.701v-191.938
					c0-8.658,7.043-15.701,15.701-15.701h25.964c8.658,0,15.701,7.043,15.701,15.701v191.938
					C1023.995,1338.324,1016.952,1345.367,1008.294,1345.367z M982.331,1123.912c-7.618,0-13.816,6.198-13.816,13.816v191.938
					c0,7.617,6.198,13.816,13.816,13.816h25.964c7.618,0,13.816-6.198,13.816-13.816v-191.938c0-7.618-6.198-13.816-13.816-13.816
					H982.331z"/>
				<path style="fill:#FFFFFF;" d="M935.843,1410.077h-25.964c-8.658,0-15.701-7.043-15.701-15.701v-22.077
					c0-8.657,7.043-15.7,15.701-15.7h25.964c8.658,0,15.701,7.043,15.701,15.7v22.077
					C951.544,1403.034,944.5,1410.077,935.843,1410.077z M909.879,1358.484c-7.618,0-13.816,6.197-13.816,13.815v22.077
					c0,7.618,6.198,13.816,13.816,13.816h25.964c7.618,0,13.816-6.198,13.816-13.816v-22.077c0-7.618-6.198-13.815-13.816-13.815
					H909.879z"/>
				<path style="fill:#FFFFFF;" d="M1008.294,1410.077h-25.964c-8.658,0-15.701-7.043-15.701-15.701v-22.077
					c0-8.657,7.043-15.7,15.701-15.7h25.964c8.658,0,15.701,7.043,15.701,15.7v22.077
					C1023.995,1403.034,1016.952,1410.077,1008.294,1410.077z M982.331,1358.484c-7.618,0-13.816,6.197-13.816,13.815v22.077
					c0,7.618,6.198,13.816,13.816,13.816h25.964c7.618,0,13.816-6.198,13.816-13.816v-22.077c0-7.618-6.198-13.815-13.816-13.815
					H982.331z"/>
				<path style="fill:#FFFFFF;" d="M1288.773,1358.484h-195.746c-11.224,0-20.355-9.132-20.355-20.356V999.212
					c0-53.595,43.604-97.197,97.198-97.197h42.061c53.595,0,97.198,43.602,97.198,97.197v338.916
					C1309.129,1349.353,1299.997,1358.484,1288.773,1358.484z M1169.87,903.9c-52.556,0-95.313,42.757-95.313,95.312v338.916
					c0,10.185,8.286,18.471,18.47,18.471h195.746c10.184,0,18.47-8.286,18.47-18.471V999.212c0-52.556-42.756-95.312-95.312-95.312
					H1169.87z"/>
				<path style="fill:#FFFFFF;" d="M840.978,1358.484H645.231c-11.224,0-20.355-9.132-20.355-20.356V999.212
					c0-53.595,43.602-97.197,97.197-97.197h42.061c53.595,0,97.198,43.602,97.198,97.197v338.916
					C861.333,1349.353,852.202,1358.484,840.978,1358.484z M722.073,903.9c-52.556,0-95.312,42.757-95.312,95.312v338.916
					c0,10.185,8.286,18.471,18.47,18.471h195.746c10.184,0,18.47-8.286,18.47-18.471V999.212c0-52.556-42.757-95.312-95.313-95.312
					H722.073z"/>
			</g>
			<g>
				
					<linearGradient id="SVGID_00000156562701787202529990000011790723835079508638_" gradientUnits="userSpaceOnUse" x1="1160.2939" y1="-93.1099" x2="1212.6619" y2="1189.9073">
					<stop  offset="0" style="stop-color:#233894"/>
					<stop  offset="0.9964" style="stop-color:#DD397A"/>
				</linearGradient>
				
					<rect x="1155.884" y="567.775" style="fill:url(#SVGID_00000156562701787202529990000011790723835079508638_);" width="67.239" height="109.479"/>
				
					<linearGradient id="SVGID_00000137115988606959460030000009285123994804060583_" gradientUnits="userSpaceOnUse" x1="1184.542" y1="416.4466" x2="1202.1864" y2="848.7335">
					<stop  offset="0" style="stop-color:#233894"/>
					<stop  offset="0.9964" style="stop-color:#DD397A"/>
				</linearGradient>
				<path style="fill:url(#SVGID_00000137115988606959460030000009285123994804060583_);" d="M1245.282,585.515h-108.68v-27.524
					c0-3.367,2.729-6.096,6.095-6.096h93.307c5.124,0,9.278,4.154,9.278,9.278V585.515z"/>
				
					<linearGradient id="SVGID_00000180336231129141935510000009191661238604047261_" gradientUnits="userSpaceOnUse" x1="-107.7084" y1="1226.7888" x2="1060.5648" y2="741.4091">
					<stop  offset="0" style="stop-color:#233894"/>
					<stop  offset="0.9964" style="stop-color:#DD397A"/>
				</linearGradient>
				<path style="fill:url(#SVGID_00000180336231129141935510000009191661238604047261_);" d="M546.534,892.055l431.369-330.819
					l409.467,317.611c14.883,11.544,36.713,3.459,40.486-14.995l5.743-28.092L977.902,488.624L536.808,825.535
					c-7.898,6.032-10.764,16.615-6.989,25.808L546.534,892.055z"/>
			</g>
		</g>
		<g style="opacity:0.6;">
			<path style="fill:#FFFFFF;" d="M1013.361,537.273c-7.633-36.225-26.622-23.793-58.425-34.939
				c-31.785-11.14-22.489-50.896-42.224-63.161c-26.311-16.351-50.471-1.173-66.839,20.288
				c-27.195,35.657-45.802,6.659-78.31,21.111c-18.624,8.279-10.679,19.877-35.873,24.547c-17.602,3.263-36.656-4.42-54.006,0.276
				c-12.848,3.478-22.169,9.579-25.012,22.025c3.628,1.708,7.385,3.251,11.255,4.645c48.571,17.509,114.832,11.662,163.924,14.243
				C844.586,547.188,1018.771,562.946,1013.361,537.273z"/>
			<path style="fill:#FFFFFF;" d="M742.48,332.848c-8.342-10.19-20.794-14.385-32.993-11.334
				c-13.296,3.325-20.811,16.033-33.184,21.114c-21.59,8.866-51.447-8.652-67.843,14.204c-20.054,27.954-35.551,6.989-35.551,25.958
				c0,18.969,138.559,4.992,206.927,5.99c9.877,0.144,52.76-0.576,34.3-21.078c-5.732-6.367-13.912-7.433-21.536-8.923
				c-9.942-1.942-33.58-3.009-40.781-10.743c-3.876-4.163-5.367-10.145-8.867-14.601
				C742.795,333.237,742.638,333.042,742.48,332.848z"/>
		</g>
		<g>
			
				<linearGradient id="SVGID_00000169521281758395255970000013040841515888984251_" gradientUnits="userSpaceOnUse" x1="1601.5526" y1="1839.9406" x2="1569.2676" y2="139.6511">
				<stop  offset="0" style="stop-color:#233894"/>
				<stop  offset="0.9964" style="stop-color:#DD397A"/>
			</linearGradient>
			<path style="fill:url(#SVGID_00000169521281758395255970000013040841515888984251_);" d="M1641.494,1507.409h-115.558V300.298
				c0-20.398,16.536-36.933,36.933-36.933h48.104c16.856,0,30.521,13.665,30.521,30.521V1507.409z"/>
			
				<linearGradient id="SVGID_00000134954448451377583260000000888681621333813394_" gradientUnits="userSpaceOnUse" x1="1195.8955" y1="871.0958" x2="2507.9773" y2="123.735">
				<stop  offset="0" style="stop-color:#53D8FF"/>
				<stop  offset="1" style="stop-color:#3840F7"/>
			</linearGradient>
			<path style="fill:url(#SVGID_00000134954448451377583260000000888681621333813394_);" d="M1916.385,871.053h-663.498
				c-18.464,0-33.433-14.969-33.433-33.433V461.718c0-18.465,14.969-33.433,33.433-33.433h663.498
				c18.464,0,33.433,14.968,33.433,33.433V837.62C1949.818,856.085,1934.85,871.053,1916.385,871.053z"/>
			<path style="fill:#FFFFFF;" d="M1900.194,858.482h-629.549c-18.464,0-33.433-14.968-33.433-33.433V481.272
				c0-18.464,14.969-33.433,33.433-33.433h629.549c18.464,0,33.433,14.968,33.433,33.433v343.777
				C1933.627,843.514,1918.658,858.482,1900.194,858.482z"/>
			<g>
				
					<linearGradient id="SVGID_00000079479386636114153890000002245922167787048889_" gradientUnits="userSpaceOnUse" x1="1841.5212" y1="637.2855" x2="1524.9828" y2="1449.416" gradientTransform="matrix(0.9982 0.0602 -0.0602 0.9982 20.7648 73.7463)">
					<stop  offset="0" style="stop-color:#53D8FF"/>
					<stop  offset="1" style="stop-color:#3840F7"/>
				</linearGradient>
				<path style="fill:url(#SVGID_00000079479386636114153890000002245922167787048889_);" d="M1572.985,1511.73
					c-2.081-0.126-4.006-1.072-5.37-2.649c-19.879-22.968-165.436-203.466-3.85-390.609
					c153.396-177.657,226.009-217.225,228.708-315.033c0.315-11.422,15.433-15.294,21.243-5.456
					c43.419,73.532,115.519,247.316-69.95,378.882c-204.592,145.132-176.396,285.244-163.011,324.657
					C1582.525,1506.733,1578.477,1512.061,1572.985,1511.73L1572.985,1511.73z"/>
				
					<linearGradient id="SVGID_00000177442976816236640000000014000500993017868699_" gradientUnits="userSpaceOnUse" x1="2110.2075" y1="789.1831" x2="1688.1548" y2="1307.1561" gradientTransform="matrix(0.9982 0.0602 -0.0602 0.9982 20.7648 73.7463)">
					<stop  offset="0" style="stop-color:#53D8FF"/>
					<stop  offset="1" style="stop-color:#3840F7"/>
				</linearGradient>
				<path style="fill:url(#SVGID_00000177442976816236640000000014000500993017868699_);" d="M1599.834,1513.349
					c-4.926-0.297-9.072-3.767-10.189-8.574c-7.604-32.718-29.467-155.47,59.195-195.123
					c97.604-43.652,185.619,43.688,253.863-34.984c3.591-4.14,10.367-1.277,9.846,4.178
					c-3.695,38.693-26.275,129.369-155.004,156.951c-137.785,29.523-152.251,46.671-147.95,66.272
					C1610.921,1508.113,1606.01,1513.722,1599.834,1513.349L1599.834,1513.349z"/>
				<path style="opacity:0.47;fill:#FFFFFF;" d="M1795.064,902.758c-1.159,7.329-2.912,14.255-5.106,21.165
					c-2.146,6.899-4.706,13.661-7.552,20.303c-5.622,13.324-12.613,26.052-20.397,38.263c-15.69,24.374-35.247,46.218-57.19,65.145
					c-10.946,9.412-22.744,18.193-34.457,26.207c-11.403,7.812-22.294,16.412-32.653,25.618
					c-20.734,18.41-39.213,39.353-55.22,61.995c-31.875,45.308-52.903,98.674-56.977,154.117
					c-2.127,27.664-0.071,55.672,5.769,82.967c5.799,27.334,15.703,53.783,28.043,79.073c0.665,1.348,0.113,2.979-1.235,3.645
					c-1.295,0.639-2.863,0.135-3.574-1.099c-14.074-24.851-25.201-51.559-32.348-79.464c-3.627-13.933-6.225-28.166-7.741-42.537
					c-1.429-14.374-1.909-28.88-1.171-43.345c1.33-28.95,7.31-57.66,16.976-84.989c9.699-27.345,23.28-53.227,39.622-77.133
					c16.333-23.938,35.732-45.713,57.279-65.084c10.797-9.667,22.167-18.714,34.125-26.973
					c11.716-7.947,22.803-15.959,33.451-24.932c21.265-17.741,40.639-37.833,56.915-60.324
					c8.257-11.161,15.603-22.995,22.207-35.252c6.454-12.269,12.379-25.148,16.351-38.303l0.052-0.171
					c0.396-1.313,1.783-2.057,3.096-1.66C1794.531,900.355,1795.256,901.55,1795.064,902.758z"/>
				<path style="opacity:0.47;fill:#FFFFFF;" d="M1592.367,1491.334c0.336-1.23,0.119-2.334-0.006-3.476l-0.362-3.403l-0.592-6.814
					c-0.333-4.546-0.578-9.098-0.72-13.655c-0.278-9.113-0.187-18.243,0.35-27.361c1.123-18.209,3.855-36.488,9.858-53.961
					c5.93-17.35,15.618-34.233,30.641-45.917c7.49-5.744,16.099-10.081,25.168-12.637c9.055-2.631,18.488-3.63,27.796-3.513
					c36.556,1.478,72.6,5.756,108.639,8.72c17.939,1.311,36.107,2.32,53.344-1.371c4.281-0.96,8.474-2.225,12.516-3.868
					c3.992-1.738,7.894-3.717,11.49-6.205c7.249-4.894,13.464-11.306,18.922-18.315l0.017-0.021
					c0.752-0.965,2.143-1.139,3.108-0.387c0.952,0.741,1.133,2.107,0.416,3.071c-5.508,7.397-11.917,14.334-19.607,19.772
					c-3.814,2.757-7.984,4.997-12.261,6.962c-4.324,1.869-8.805,3.325-13.352,4.445c-18.345,4.112-36.906,3.184-55.035,2.073
					c-18.188-1.208-36.207-3.208-54.256-4.753c-17.993-1.557-36.187-3.002-54.045-3.747c-8.802-0.189-17.623,0.681-26.013,3.04
					c-8.41,2.29-16.32,6.196-23.267,11.42c-14.008,10.475-23.563,26.187-29.599,42.871c-6.114,16.771-9.152,34.66-10.583,52.585
					c-0.694,8.978-0.951,18-0.841,27.02c0.059,4.51,0.217,9.019,0.465,13.523l0.462,6.748l0.296,3.365
					c0.114,1.113,0.148,2.262,0.777,3.28c0.597,0.967,0.297,2.234-0.669,2.831c-0.966,0.597-2.234,0.297-2.831-0.669
					c-0.31-0.503-0.378-1.087-0.236-1.616L1592.367,1491.334z"/>
			</g>
			<g>
				
					<linearGradient id="SVGID_00000117668145382137854680000000377996672251697558_" gradientUnits="userSpaceOnUse" x1="4006.7307" y1="1979.9048" x2="1288.3965" y2="551.5911">
					<stop  offset="0" style="stop-color:#FDF53F"/>
					<stop  offset="1" style="stop-color:#D93C65"/>
				</linearGradient>
				<path style="fill:url(#SVGID_00000117668145382137854680000000377996672251697558_);" d="M1364.195,559.433v26.959h-44.931
					v50.324h-35.945V505.514h84.471v28.756h-48.526v25.162H1364.195z"/>
				
					<linearGradient id="SVGID_00000074419647735831289720000015739658495563697846_" gradientUnits="userSpaceOnUse" x1="4033.7976" y1="1928.4006" x2="1315.4615" y2="500.0859">
					<stop  offset="0" style="stop-color:#FDF53F"/>
					<stop  offset="1" style="stop-color:#D93C65"/>
				</linearGradient>
				<path style="fill:url(#SVGID_00000074419647735831289720000015739658495563697846_);" d="M1401.488,521.78
					c12.16-12.042,28.546-18.063,49.155-18.063c20.607,0,36.993,6.021,49.155,18.063c12.16,12.042,18.243,28.487,18.243,49.335
					c0,20.848-6.083,37.293-18.243,49.335c-12.162,12.042-28.548,18.063-49.155,18.063c-20.609,0-36.995-6.021-49.155-18.063
					c-12.162-12.042-18.242-28.487-18.242-49.335C1383.246,550.267,1389.325,533.821,1401.488,521.78z M1420.089,571.115
					c0,25.162,10.183,37.743,30.554,37.743c20.369,0,30.554-12.581,30.554-37.743c0-25.162-10.185-37.743-30.554-37.743
					C1430.272,533.372,1420.089,545.953,1420.089,571.115z"/>
				
					<linearGradient id="SVGID_00000134243996951097473280000015610185284673038267_" gradientUnits="userSpaceOnUse" x1="4060.1367" y1="1878.2775" x2="1341.8016" y2="449.9632">
					<stop  offset="0" style="stop-color:#FDF53F"/>
					<stop  offset="1" style="stop-color:#D93C65"/>
				</linearGradient>
				<path style="fill:url(#SVGID_00000134243996951097473280000015610185284673038267_);" d="M1571.24,590.885v45.83h-35.046
					V506.413c15.574-1.797,31.151-2.696,46.729-2.696c35.945,0,53.918,13.479,53.918,40.439c0,7.548-2.337,14.558-7.01,21.028
					c-4.673,6.47-10.725,11.084-18.152,13.839v0.359c3.595,2.039,6.588,4.645,8.986,7.818c2.396,3.176,4.673,7.7,6.83,13.569
					l12.941,35.945h-36.844l-11.143-34.148c-1.32-4.193-2.996-7.189-5.032-8.986c-2.039-1.797-4.735-2.696-8.088-2.696H1571.24z
					 M1571.24,564.824h9.885c6.111,0,10.932-1.528,14.468-4.583c3.532-3.055,5.302-7.217,5.302-12.491
					c0-11.382-6.591-17.074-19.77-17.074c-3.836,0-7.13,0.301-9.885,0.899V564.824z"/>
				
					<linearGradient id="SVGID_00000170254483062153526040000001854324090658933893_" gradientUnits="userSpaceOnUse" x1="3878.675" y1="2008.7213" x2="1160.3407" y2="580.4075">
					<stop  offset="0" style="stop-color:#FDF53F"/>
					<stop  offset="1" style="stop-color:#D93C65"/>
				</linearGradient>
				<path style="fill:url(#SVGID_00000170254483062153526040000001854324090658933893_);" d="M1459.575,758.002v45.831h-35.047
					V673.531c15.574-1.797,31.151-2.696,46.729-2.696c35.945,0,53.918,13.479,53.918,40.439c0,7.549-2.337,14.558-7.01,21.028
					c-4.673,6.47-10.725,11.084-18.152,13.839v0.359c3.595,2.039,6.588,4.645,8.986,7.818c2.396,3.176,4.673,7.7,6.83,13.57
					l12.94,35.945h-36.844l-11.143-34.148c-1.319-4.193-2.996-7.189-5.032-8.987c-2.039-1.797-4.735-2.696-8.088-2.696H1459.575z
					 M1459.575,731.942h9.885c6.111,0,10.932-1.528,14.468-4.583c3.532-3.055,5.302-7.217,5.302-12.491
					c0-11.382-6.591-17.074-19.77-17.074c-3.836,0-7.13,0.3-9.885,0.899V731.942z"/>
				
					<linearGradient id="SVGID_00000005987660627646822930000009185445714176721561_" gradientUnits="userSpaceOnUse" x1="3906.8562" y1="1955.0935" x2="1188.5139" y2="526.7755">
					<stop  offset="0" style="stop-color:#FDF53F"/>
					<stop  offset="1" style="stop-color:#D93C65"/>
				</linearGradient>
				<path style="fill:url(#SVGID_00000005987660627646822930000009185445714176721561_);" d="M1630.494,722.956v26.959h-46.729
					v25.162h50.323v28.756h-86.269V672.632h86.269v28.756h-50.323v21.567H1630.494z"/>
				
					<linearGradient id="SVGID_00000037658692115947134200000017879377313320822965_" gradientUnits="userSpaceOnUse" x1="3933.3323" y1="1904.6947" x2="1214.991" y2="476.3773">
					<stop  offset="0" style="stop-color:#FDF53F"/>
					<stop  offset="1" style="stop-color:#D93C65"/>
				</linearGradient>
				<path style="fill:url(#SVGID_00000037658692115947134200000017879377313320822965_);" d="M1732.758,744.523h0.359v-71.891
					h35.047v131.201h-35.047l-39.181-71.891h-0.359v71.891h-35.046V672.632h35.046L1732.758,744.523z"/>
				
					<linearGradient id="SVGID_00000037666630685942957110000001144877068026134190_" gradientUnits="userSpaceOnUse" x1="3965.4172" y1="1843.6448" x2="1247.0812" y2="415.33">
					<stop  offset="0" style="stop-color:#FDF53F"/>
					<stop  offset="1" style="stop-color:#D93C65"/>
				</linearGradient>
				<path style="fill:url(#SVGID_00000037666630685942957110000001144877068026134190_);" d="M1897.747,672.632v29.655h-35.586
					v101.546h-36.664V702.287h-35.586v-29.655H1897.747z"/>
			</g>
		</g>
		<g>
			<g>
				
					<linearGradient id="SVGID_00000157995090689500691410000009844204787470740398_" gradientUnits="userSpaceOnUse" x1="2066.1438" y1="1173.4435" x2="2134.4038" y2="1173.4435" gradientTransform="matrix(-0.9999 0.0161 0.0161 0.9999 4119.3433 -45.9411)">
					<stop  offset="0" style="stop-color:#F9B776"/>
					<stop  offset="1" style="stop-color:#F47960"/>
				</linearGradient>
				<path style="fill:url(#SVGID_00000157995090689500691410000009844204787470740398_);" d="M2047.166,1125.869
					c7.122,7.361,17.536,13.653,24.856,17.563c-10.618,13.567-25.063,27.214-44.259,40.654l-5.354,12.554l-18.14-21.043
					C2004.268,1175.596,2035.946,1159.19,2047.166,1125.869z"/>
				
					<linearGradient id="SVGID_00000124154488604390839380000013513560590712530064_" gradientUnits="userSpaceOnUse" x1="2134.7766" y1="1524.6299" x2="2185.9614" y2="1524.6299" gradientTransform="matrix(-0.9999 0.0161 0.0161 0.9999 4119.3433 -45.9411)">
					<stop  offset="0" style="stop-color:#2B3582"/>
					<stop  offset="1" style="stop-color:#150E42"/>
				</linearGradient>
				<path style="fill:url(#SVGID_00000124154488604390839380000013513560590712530064_);" d="M1958.441,1531.954
					c-0.012-0.381,0.007-0.768,0.099-1.158c5.396-22.946,33.777-37.641,33.777-37.641l11.352,0.706
					c6.843,20.037,6.204,32.404,5.246,37.924c-0.026,0.155-0.071,0.302-0.109,0.452
					C1999.467,1533.223,1980.226,1534.078,1958.441,1531.954z"/>
				
					<linearGradient id="SVGID_00000020369341048090161360000012172873698939675562_" gradientUnits="userSpaceOnUse" x1="2262.9148" y1="1464.2468" x2="2076.7034" y2="1610.4604" gradientTransform="matrix(-0.9999 0.0161 0.0161 0.9999 4119.3433 -45.9411)">
					<stop  offset="0" style="stop-color:#53D8FF"/>
					<stop  offset="1" style="stop-color:#3840F7"/>
				</linearGradient>
				<path style="fill:url(#SVGID_00000020369341048090161360000012172873698939675562_);" d="M2008.805,1532.237
					c-0.475,1.845-1.809,3.298-3.539,3.691c-13.258,3.012-34.439,1.101-43.335,0.083c-1.963-0.224-3.424-2.013-3.489-4.057
					C1980.226,1534.078,1999.467,1533.223,2008.805,1532.237z"/>
				
					<linearGradient id="SVGID_00000081639085127473040190000001562576778516463038_" gradientUnits="userSpaceOnUse" x1="2149.0107" y1="1466.3585" x2="2139.2334" y2="1551.6868" gradientTransform="matrix(-0.9999 0.0161 0.0161 0.9999 4119.3433 -45.9411)">
					<stop  offset="0" style="stop-color:#F9B776"/>
					<stop  offset="1" style="stop-color:#F47960"/>
				</linearGradient>
				<path style="fill:url(#SVGID_00000081639085127473040190000001562576778516463038_);" d="M2007.955,1476.901l-4.429,23.192
					c-0.325,1.699-1.606,2.989-3.18,3.162c-1.927,0.212-4.672,0.363-7.441,0.001c-2.483-0.324-4.249-2.814-3.853-5.522l3.007-20.578
					L2007.955,1476.901z"/>
				
					<linearGradient id="SVGID_00000103258057534578515840000006820015710699636898_" gradientUnits="userSpaceOnUse" x1="2295.9937" y1="1506.376" x2="2109.7834" y2="1652.5889" gradientTransform="matrix(-0.9999 0.0161 0.0161 0.9999 4119.3433 -45.9411)">
					<stop  offset="0" style="stop-color:#53D8FF"/>
					<stop  offset="1" style="stop-color:#3840F7"/>
				</linearGradient>
				<path style="fill:url(#SVGID_00000103258057534578515840000006820015710699636898_);" d="M1909.356,1533.606
					c12.515-0.553,18.968-2.131,22.293-3.554c0.028,1.245,0.042,2.512,0.022,3.825c-0.021,1.403-1.041,2.539-2.319,2.552
					l-68.755,0.664c-2.195,0.021-3.518-2.503-2.599-4.53C1867.025,1533.163,1890.01,1534.46,1909.356,1533.606z"/>
				
					<linearGradient id="SVGID_00000031916227561764927790000014660384862779820442_" gradientUnits="userSpaceOnUse" x1="2212.7175" y1="1525.9918" x2="2286.3967" y2="1525.9918" gradientTransform="matrix(-0.9999 0.0161 0.0161 0.9999 4119.3433 -45.9411)">
					<stop  offset="0" style="stop-color:#2B3582"/>
					<stop  offset="1" style="stop-color:#150E42"/>
				</linearGradient>
				<path style="fill:url(#SVGID_00000031916227561764927790000014660384862779820442_);" d="M1857.999,1532.564
					c0.079-0.176,0.148-0.356,0.263-0.523c5.935-8.581,21.127-25.723,51.565-33.542l14.651-0.699c0,0,6.71,11.24,7.171,32.253
					c-3.326,1.422-9.778,3.001-22.293,3.554C1890.01,1534.46,1867.025,1533.163,1857.999,1532.564z"/>
				
					<linearGradient id="SVGID_00000174598298172831218350000009408106124188118449_" gradientUnits="userSpaceOnUse" x1="2228.6531" y1="1475.4846" x2="2218.876" y2="1560.8126" gradientTransform="matrix(-0.9999 0.0161 0.0161 0.9999 4119.3433 -45.9411)">
					<stop  offset="0" style="stop-color:#F9B776"/>
					<stop  offset="1" style="stop-color:#F47960"/>
				</linearGradient>
				<path style="fill:url(#SVGID_00000174598298172831218350000009408106124188118449_);" d="M1926.839,1475.541
					c-0.145,1.095-1.887,17.734-2.561,24.186c-0.16,1.533-1.249,2.735-2.644,2.924c-2.491,0.338-6.526,0.675-10.071,0.008
					c-1.913-0.36-3.322-2.17-3.356-4.299l-0.42-26.068L1926.839,1475.541z"/>
				
					<linearGradient id="SVGID_00000091711817008952228440000015099093704156326323_" gradientUnits="userSpaceOnUse" x1="2344.824" y1="1085.2924" x2="2032.1136" y2="1570.5332" gradientTransform="matrix(-0.9999 0.0161 0.0161 0.9999 4119.3433 -45.9411)">
					<stop  offset="0" style="stop-color:#2B3582"/>
					<stop  offset="1" style="stop-color:#150E42"/>
				</linearGradient>
				<path style="fill:url(#SVGID_00000091711817008952228440000015099093704156326323_);" d="M1933.717,1172.288
					c0,0-33.192,134.933-29.829,304.007c0.061,3.083,2.269,5.708,5.296,6.295c4.46,0.865,11.013,1.871,16.42,1.632
					c2.887-0.127,5.266-2.308,5.706-5.164c4.489-29.151,30.3-193.387,46.081-220.237c0,0,13.014,145.696,10.824,221.427
					c-0.054,1.883,1.35,3.493,3.224,3.68c2.844,0.282,7.388,0.458,13.157-0.249c2.19-0.268,3.933-1.955,4.211-4.143
					c3.135-24.662,21.1-171.444,18.537-276.93c-0.145-5.949-16.246-31.564-16.246-31.564L1933.717,1172.288z"/>
				
					<linearGradient id="SVGID_00000020376652774063089660000006661311734508405690_" gradientUnits="userSpaceOnUse" x1="1849.9756" y1="1060.4707" x2="2687.0586" y2="1165.4811">
					<stop  offset="0" style="stop-color:#7A2DDB"/>
					<stop  offset="1" style="stop-color:#7077FF"/>
				</linearGradient>
				<path style="fill:url(#SVGID_00000020376652774063089660000006661311734508405690_);" d="M1881.927,1010.466
					c5.531-9.489,11.062-18.978,16.593-28.467c43.467-32.445,109.95-17.448,135.617-14.634c8.417,0.923,16.165,4.94,21.803,11.257
					c22.36,25.048,71.647,93.819,16.081,164.811c-7.32-3.911-17.733-10.203-24.856-17.564c5.988-17.782,6.137-40.386-7.454-67.881
					c-0.414,2.203-0.934,4.387-1.574,6.537c-17.193,57.69-17.39,105.47-17.173,116.478c0.03,1.495-0.846,2.854-2.225,3.434
					c-23.691,9.938-69.683,4.991-85.128,2.943c-2.832-0.376-4.775-2.975-4.43-5.812c6.68-54.906-33.581-144.406-44.195-166.814
					C1884.223,1013.14,1883.18,1011.695,1881.927,1010.466z"/>
				
					<linearGradient id="SVGID_00000172422651324785528950000004287709359034675845_" gradientUnits="userSpaceOnUse" x1="2170.6138" y1="920.876" x2="2133.2827" y2="1082.1992" gradientTransform="matrix(-0.9999 0.0161 0.0161 0.9999 4119.3433 -45.9411)">
					<stop  offset="0" style="stop-color:#F9B776"/>
					<stop  offset="1" style="stop-color:#F47960"/>
				</linearGradient>
				<path style="fill:url(#SVGID_00000172422651324785528950000004287709359034675845_);" d="M1992.181,921.896l5.352,46.878
					c0,0-26.285,8.381-45.714-4.864l12.818-42.89L1992.181,921.896z"/>
				<g>
					
						<linearGradient id="SVGID_00000075148430495320294430000012084700463879407788_" gradientUnits="userSpaceOnUse" x1="-74.6255" y1="424.9179" x2="-140.8578" y2="512.5378" gradientTransform="matrix(-0.697 -0.717 -0.717 0.697 2222.1089 528.7878)">
						<stop  offset="0" style="stop-color:#F9B776"/>
						<stop  offset="1" style="stop-color:#F47960"/>
					</linearGradient>
					<path style="fill:url(#SVGID_00000075148430495320294430000012084700463879407788_);" d="M1960.671,868.876
						c-0.626,0.609-25.991,52.469-25.991,52.469l29.919,13.853l31.343-45.581C1995.941,889.617,1971.151,858.686,1960.671,868.876z"
						/>
					
						<linearGradient id="SVGID_00000130623431871525379800000009648235293339556774_" gradientUnits="userSpaceOnUse" x1="-125.2073" y1="445.9597" x2="-46.0911" y2="445.9597" gradientTransform="matrix(-0.697 -0.717 -0.717 0.697 2222.1089 528.7878)">
						<stop  offset="0" style="stop-color:#2B3582"/>
						<stop  offset="1" style="stop-color:#150E42"/>
					</linearGradient>
					<path style="fill:url(#SVGID_00000130623431871525379800000009648235293339556774_);" d="M1982.826,891.077
						c0.552,1.362,0.446,2.893-0.289,4.165l-14.409,24.921c-0.219,0.378-0.481,0.721-0.796,1.024
						c-1.736,1.669-7.69,6.538-12.457,0.116c-4.063-5.473-7.872-10.448-11.901-12.459c-2.352-1.175-5.208-0.161-6.355,2.206
						c-2.361,4.875-6.928,14.807-9.746,24.201c-0.706,2.354,0.544,4.85,2.836,5.736c6.051,2.339,18.003,6.552,28.569,7.837
						c1.736,0.211,3.439-0.547,4.446-1.976c4.436-6.287,16.941-23.859,21.234-28.276c3.989-4.104,11.495-2.701,14.882-1.787
						c1.286,0.347,2.646,0.148,3.775-0.557c3.387-2.115,9.274-7.342,3.673-15.94c-1.393-2.138-0.747-5.026,1.362-6.462
						c3.778-2.574,7.846-7.356,3.775-14.928c-4.121-7.666-11.269-8.245-16.121-7.572c-2.146,0.298-4.348-0.795-5.206-2.785
						c-0.381-0.885-1.119-1.633-2.475-1.886c-2.556-0.476-4.265-2.779-3.807-5.338c0.787-4.388,0.05-10.06-6.996-13.788
						c-12.923-6.837-23.958,4.82-26.656,14.553c-2.697,9.733,11.735,16.348,20.763,17.346
						C1977.561,880.161,1981.306,887.325,1982.826,891.077z"/>
					
						<linearGradient id="SVGID_00000027606997191562024430000001996464854463386240_" gradientUnits="userSpaceOnUse" x1="-170.5774" y1="494.2446" x2="-117.9397" y2="440.2397" gradientTransform="matrix(-0.697 -0.717 -0.717 0.697 2222.1089 528.7878)">
						<stop  offset="0" style="stop-color:#F9B776"/>
						<stop  offset="1" style="stop-color:#F47960"/>
					</linearGradient>
					<path style="fill:url(#SVGID_00000027606997191562024430000001996464854463386240_);" d="M1977.141,926.985
						c0,0,6.831-16.017,14.132-15.523c7.301,0.494,13.156,7.665,4.252,15.976C1984.448,937.776,1977.141,926.985,1977.141,926.985z"
						/>
				</g>
				
					<linearGradient id="SVGID_00000051343831907111021800000013000396043230494089_" gradientUnits="userSpaceOnUse" x1="2169.4495" y1="1215.5842" x2="2143.2278" y2="1262.2498" gradientTransform="matrix(-0.9999 0.0161 0.0161 0.9999 4119.3433 -45.9411)">
					<stop  offset="0" style="stop-color:#2B3582"/>
					<stop  offset="1" style="stop-color:#150E42"/>
				</linearGradient>
				<path style="fill:url(#SVGID_00000051343831907111021800000013000396043230494089_);" d="M1978.636,1255.375
					c0.592-0.01,1.128-0.416,1.272-1.019c2.75-11.355,24.504-24.136,24.724-24.264c0.636-0.37,0.852-1.186,0.481-1.823
					c-0.371-0.636-1.183-0.853-1.823-0.481c-0.935,0.544-22.957,13.483-25.973,25.941c-0.173,0.715,0.267,1.436,0.982,1.609
					C1978.412,1255.365,1978.525,1255.377,1978.636,1255.375z"/>
				<g>
					
						<linearGradient id="SVGID_00000125605102271942030750000007274592066881028787_" gradientUnits="userSpaceOnUse" x1="1855.8542" y1="1013.6102" x2="2692.9385" y2="1118.6207">
						<stop  offset="0" style="stop-color:#7A2DDB"/>
						<stop  offset="1" style="stop-color:#7077FF"/>
					</linearGradient>
					<path style="fill:url(#SVGID_00000125605102271942030750000007274592066881028787_);" d="M1792.894,1026.67
						c49.861,6.662,81.775-25.245,105.625-44.672c31.49-25.65,56.507-13.821,56.507-13.821l-32.969,65.464
						c-50.024,48.711-102.276,38.914-135.359,23.923C1785.991,1045.034,1789.173,1034.487,1792.894,1026.67z"/>
					
						<linearGradient id="SVGID_00000010286068312310421130000004594891388324063366_" gradientUnits="userSpaceOnUse" x1="1696.0594" y1="916.9312" x2="1467.6129" y2="1209.2086" gradientTransform="matrix(-0.9999 0.0161 0.0161 0.9999 3351.6743 -33.5759)">
						<stop  offset="0" style="stop-color:#F9B776"/>
						<stop  offset="1" style="stop-color:#F47960"/>
					</linearGradient>
					<path style="fill:url(#SVGID_00000010286068312310421130000004594891388324063366_);" d="M1722.507,998.121l16.638,8.611
						c19.977,11.726,37.781,17.805,53.75,19.938c-3.721,7.817-6.903,18.364-6.195,30.895c-21.06-9.543-34.355-21.19-34.355-21.19
						C1714.618,1014.695,1722.507,998.121,1722.507,998.121z"/>
				</g>
				
					<linearGradient id="SVGID_00000051344028037102978380000015318107443077957012_" gradientUnits="userSpaceOnUse" x1="1726.6334" y1="940.827" x2="1498.1862" y2="1233.1051" gradientTransform="matrix(-0.9999 0.0161 0.0161 0.9999 3351.6743 -33.5759)">
					<stop  offset="0" style="stop-color:#F9B776"/>
					<stop  offset="1" style="stop-color:#F47960"/>
				</linearGradient>
				<path style="fill:url(#SVGID_00000051344028037102978380000015318107443077957012_);" d="M1674.287,1022.148
					c1.008-3.557,3.579-6.463,6.987-7.898l33.259-14.001c0,0,0.436-4.302-7.189-7.097c-7.626-2.795-5.991-11.312-5.991-11.312
					s10.43,4.556,25.708,11.803c8.737,4.144,13.723,11.63,16.394,17.282l-8.435,11.472c-20.532,6.53-41.391,8.052-62.486,5.933
					L1674.287,1022.148z"/>
			</g>
			<g>
				
					<linearGradient id="SVGID_00000161623136934815729540000012249218794683889047_" gradientUnits="userSpaceOnUse" x1="2058.8684" y1="909.4322" x2="2368.8696" y2="1248.4332">
					<stop  offset="0" style="stop-color:#2B3582"/>
					<stop  offset="0.6502" style="stop-color:#150E42"/>
				</linearGradient>
				<path style="fill:url(#SVGID_00000161623136934815729540000012249218794683889047_);" d="M2054.407,1009.345
					c5.091-8.406,13.971-13.926,19.327-22.165c6.747-10.378,6.978-24.121,2.557-35.684c-3.667-9.594-10.2-17.877-13.941-27.443
					c-5.034-12.874-5.128-18.412-2.835-31.337c2.02-11.384,6.443-23.509,17.371-30.038c13.517-8.076,30.05-9.608,45.522-6.685
					c16.059,3.034,31.629,9.853,43.378,21.214c11.749,11.361,19.408,27.302,19.212,43.644c-0.132,11.057-3.69,22.454-0.146,32.928
					c2.755,8.145,9.918,14.645,18.291,16.601c9.306,2.172,18.978-1.008,28.533-0.884c9.471,0.124,18.863,3.635,26.092,9.755
					c6.403,5.422,11.149,13.026,12.228,21.346c1.08,8.321-1.818,17.272-8.214,22.702c-4.374,3.714-10.529,6.228-12.144,11.734
					c-1.807,6.16,3.496,12.349,9.408,14.851c5.913,2.502,12.565,2.716,18.582,4.956c13.461,5.01,21.617,20.18,20.565,34.505
					c-1.052,14.324-10.114,27.291-21.999,35.355c-11.885,8.065-26.31,11.686-40.625,12.853c-14.316,1.167-28.703,0.026-43.05-0.65
					c-16.41-0.774-33.147-0.99-48.709-6.254c-15.738-5.324-29.335-15.508-42.014-26.244c-6.003-5.083-12.092-10.644-14.786-18.034
					c-1.957-5.366-1.966-11.327-4.215-16.577c-4.828-11.266-18.213-16.054-25.955-25.556
					C2048.991,1034.607,2047.97,1019.974,2054.407,1009.345z"/>
				<path style="fill:#FFFFFF;" d="M2232.451,1029.59c0.03,0,0.06-0.002,0.091-0.008c6.787-1.249,12.769-6.22,15.24-12.661
					c2.471-6.445,1.347-14.139-2.864-19.606c-6.254-8.119-17.266-10.22-28.009-11.677l-19.468-2.64
					c-10.987-1.49-22.241-3.622-28.56-11.741c-6.739-8.661-5.394-20.491-4.094-31.934c0.149-1.31,0.296-2.609,0.43-3.892
					c1.703-16.346-0.008-30.557-5.085-42.235c-6.195-14.25-17.743-24.734-30.891-28.042c-0.269-0.074-0.535,0.093-0.603,0.36
					c-0.067,0.265,0.095,0.535,0.36,0.6c12.852,3.235,24.149,13.506,30.222,27.477c5.008,11.522,6.694,25.565,5.01,41.736
					c-0.134,1.28-0.281,2.578-0.429,3.884c-1.323,11.64-2.691,23.676,4.297,32.654c6.548,8.415,18.019,10.6,29.208,12.117
					l19.468,2.64c10.539,1.428,21.333,3.477,27.356,11.297c4.005,5.199,5.074,12.518,2.725,18.645
					c-2.35,6.127-8.039,10.854-14.494,12.041c-0.269,0.05-0.448,0.308-0.398,0.577
					C2232.008,1029.424,2232.216,1029.59,2232.451,1029.59z"/>
				<path style="fill:#FFFFFF;" d="M2226.31,1023.614c0.243,0,0.487-0.089,0.678-0.267c2.38-2.23,5.077-4.758,6.677-7.962
					c1.454-2.91,2.179-7.227-0.147-10.627c-1.516-2.214-3.992-3.483-6.443-4.525c-5.946-2.53-12.194-4.341-18.573-5.379
					c-4.151-0.678-8.399-1.03-12.508-1.373c-5.305-0.442-10.79-0.899-16.039-2.057c-6.277-1.385-17.538-5.182-22.437-15.04
					c-3.959-7.967-2.489-16.853-0.933-26.26c1.262-7.626,2.567-15.515,0.778-23.009c-0.128-0.533-0.665-0.864-1.195-0.734
					c-0.533,0.128-0.861,0.663-0.734,1.195c1.696,7.105,0.424,14.792-0.806,22.225c-1.539,9.304-3.13,18.924,1.114,27.467
					c5.267,10.598,17.163,14.631,23.785,16.094c5.38,1.187,10.932,1.65,16.302,2.098c4.071,0.339,8.279,0.69,12.353,1.352
					c6.222,1.015,12.317,2.78,18.116,5.248c2.025,0.862,4.294,1.939,5.583,3.82c1.517,2.216,1.521,5.6,0.01,8.62
					c-1.441,2.886-3.891,5.182-6.259,7.4c-0.4,0.376-0.42,1.003-0.045,1.402C2225.781,1023.51,2226.045,1023.614,2226.31,1023.614z"
					/>
				
					<linearGradient id="SVGID_00000000924569470662869930000012054688789568947641_" gradientUnits="userSpaceOnUse" x1="2083.4128" y1="1025.1831" x2="2050.4097" y2="701.1498">
					<stop  offset="0" style="stop-color:#FDF53F"/>
					<stop  offset="1" style="stop-color:#D93C65"/>
				</linearGradient>
				<path style="fill:url(#SVGID_00000000924569470662869930000012054688789568947641_);" d="M2068.588,990.178
					c9.269-2.942,36.305-8.535,62.484,14.855c4.44,3.967,6.327,10.073,4.859,15.843c-6.518,25.619-23.583,101.273-7.03,133.622
					c0,0-27.744,31.592-58.963,6.992c0,0-14.797-60.035-33.332-86.197c-12.797-18.062,18.831-68.902,26.843-81.191
					C2064.662,992.242,2066.472,990.85,2068.588,990.178z"/>
				
					<linearGradient id="SVGID_00000123412773968793063110000000974817507326376842_" gradientUnits="userSpaceOnUse" x1="-7410.9111" y1="2258.8499" x2="-7403.4556" y2="2205.9143" gradientTransform="matrix(0.9646 0.2639 -0.2639 0.9646 9817.4678 791.7588)">
					<stop  offset="0" style="stop-color:#F9B776"/>
					<stop  offset="1" style="stop-color:#F47960"/>
				</linearGradient>
				<path style="fill:url(#SVGID_00000123412773968793063110000000974817507326376842_);" d="M2093.489,939.088
					c0,0,14.403,38.741,15.716,55.913c0,0-15.113,7.168-29.646-4.286c0,0-2.132-38.893-4.419-45.827L2093.489,939.088z"/>
				
					<linearGradient id="SVGID_00000111170139209239196160000006295541754067510191_" gradientUnits="userSpaceOnUse" x1="-7445.0923" y1="2145.4241" x2="-7375.3799" y2="2225.5747" gradientTransform="matrix(0.9646 0.2639 -0.2639 0.9646 9817.4678 791.7588)">
					<stop  offset="0" style="stop-color:#F9B776"/>
					<stop  offset="1" style="stop-color:#F47960"/>
				</linearGradient>
				<path style="fill:url(#SVGID_00000111170139209239196160000006295541754067510191_);" d="M2073.5,886.271
					c0,0-35.217,51.001-13.444,65.299c21.772,14.298,46.843-21.946,46.843-21.946s7.915-27.732-0.977-36.953
					C2097.03,883.45,2073.5,886.271,2073.5,886.271z"/>
				
					<linearGradient id="SVGID_00000052792623115854867700000014041228772631990933_" gradientUnits="userSpaceOnUse" x1="2089.8848" y1="881.0695" x2="2399.885" y2="1220.0697">
					<stop  offset="0" style="stop-color:#2B3582"/>
					<stop  offset="0.6502" style="stop-color:#150E42"/>
				</linearGradient>
				<path style="fill:url(#SVGID_00000052792623115854867700000014041228772631990933_);" d="M2089.982,873.953
					c0,0-16.488,4.188-18.687,11.714c-2.199,7.526,23.704,14.056,30.936,14.279l6.31,30.126c0,0,16.755-28.706,9.672-45.014
					C2111.13,868.75,2089.982,873.953,2089.982,873.953z"/>
				
					<linearGradient id="SVGID_00000142895132125480642920000008427438916655885749_" gradientUnits="userSpaceOnUse" x1="-7427.6753" y1="2130.2737" x2="-7357.9634" y2="2210.4238" gradientTransform="matrix(0.9646 0.2639 -0.2639 0.9646 9817.4678 791.7588)">
					<stop  offset="0" style="stop-color:#F9B776"/>
					<stop  offset="1" style="stop-color:#F47960"/>
				</linearGradient>
				<path style="fill:url(#SVGID_00000142895132125480642920000008427438916655885749_);" d="M2099.855,926.026
					c0,0,13.762-16.467,19.51-5.969c5.749,10.498-12.324,18.74-18.708,13.643L2099.855,926.026z"/>
				
					<linearGradient id="SVGID_00000152241767823057097380000001937171733748733575_" gradientUnits="userSpaceOnUse" x1="5780.6865" y1="1639.1125" x2="5947.0127" y2="1345.5106" gradientTransform="matrix(-1 0.0066 0.0066 1 7975.5894 -57.3689)">
					<stop  offset="0" style="stop-color:#F9B776"/>
					<stop  offset="1" style="stop-color:#F47960"/>
				</linearGradient>
				<path style="fill:url(#SVGID_00000152241767823057097380000001937171733748733575_);" d="M2036.002,1288.588
					c0.15,2.734-4.304,24.51-6.731,36.126c-0.977,4.674-0.166,9.536,2.272,13.641l92.979,150.9c1.125,1.825,1.954,3.809,2.472,5.889
					c1.774,7.123,5.497,24.59,3.958,40.56l-4.526,9.802l20.179-4.925l3.53-54.461l-5.79-3.404
					c-5.002-2.94-8.932-7.393-11.226-12.722c-8.506-19.751-29.648-70.037-35.286-94.619c-6.406-27.937-37.903-50.205-37.903-50.205
					l5.26-13.018L2036.002,1288.588z"/>
				
					<linearGradient id="SVGID_00000058579786691779764010000007928862210952542616_" gradientUnits="userSpaceOnUse" x1="5816.9438" y1="1535.3071" x2="5865.561" y2="1535.3071" gradientTransform="matrix(-1 0.0066 0.0066 1 7975.5894 -57.3689)">
					<stop  offset="0" style="stop-color:#2B3582"/>
					<stop  offset="1" style="stop-color:#150E42"/>
				</linearGradient>
				<path style="fill:url(#SVGID_00000058579786691779764010000007928862210952542616_);" d="M2168.813,1521.503
					c0,0-11.216-17.164-12.612-23.893c-1.396-6.729-5.17-18.59-11.855-14.894c0,0-2.649,32.839-1.348,45.633
					c1.302,12.794-14.283,12.633-14.283,12.633s-4.284,0.673-7.377,3.867c-2.136,2.206-0.523,5.947,2.544,6.095
					c5.103,0.246,13.202,0.202,21.678-1.578c2.962-0.622,5.124-3.186,5.256-6.21l1.637-37.773l14.077,17.198L2168.813,1521.503z"/>
				
					<linearGradient id="SVGID_00000063613875006811824620000009567980844092047779_" gradientUnits="userSpaceOnUse" x1="5969.1758" y1="1421.9131" x2="5720.4263" y2="1501.4551" gradientTransform="matrix(-1 0.0066 0.0066 1 7975.5894 -57.3689)">
					<stop  offset="0" style="stop-color:#F9B776"/>
					<stop  offset="1" style="stop-color:#F47960"/>
				</linearGradient>
				<path style="fill:url(#SVGID_00000063613875006811824620000009567980844092047779_);" d="M2090.472,1311.986
					c0,0,5.388,136.232,6.132,155.58c0.744,19.349-2.053,62.299-21.251,75.433l8.544,6.115c0,0,10.407-9.138,20.438-26.564
					c11.268-19.576,14.712-23.175,14.712-23.175l-3.969-7.807c-1.738-3.418-2.295-7.308-1.581-11.075
					c3.86-20.362,16.761-88.089,20.343-102.687c4.228-17.232,4.179-40.152-11.8-59.081
					C2106.061,1299.796,2090.472,1311.986,2090.472,1311.986z"/>
				
					<linearGradient id="SVGID_00000051372252429236659980000013449583567388212875_" gradientUnits="userSpaceOnUse" x1="5862.019" y1="1544.0881" x2="5919.9751" y2="1544.0881" gradientTransform="matrix(-1 0.0066 0.0066 1 7975.5894 -57.3689)">
					<stop  offset="0" style="stop-color:#2B3582"/>
					<stop  offset="1" style="stop-color:#150E42"/>
				</linearGradient>
				<path style="fill:url(#SVGID_00000051372252429236659980000013449583567388212875_);" d="M2112.306,1554.801
					c0.602-0.004,1.107-0.443,1.182-1.041c0.573-4.554,2.967-22.812,5.091-27.565c2.433-5.442,10.297-28.31-0.489-30.067
					c0,0-26.108,39.494-31.156,44.844c-5.048,5.35-11.581,2.027-11.581,2.027s-4.977,1.558-8.671,6.438
					c-1.758,2.323-0.031,5.663,2.881,5.644l18.012-0.118c5.231-0.034,9.884-3.287,11.75-8.174
					c3.043-7.969,8.301-19.671,14.565-24.926l-2.789,31.632C2111.04,1554.2,2111.597,1554.806,2112.306,1554.801L2112.306,1554.801z
					"/>
				
					<linearGradient id="SVGID_00000061462553771608931060000003800188164865725597_" gradientUnits="userSpaceOnUse" x1="6023.2642" y1="971.278" x2="5884.4175" y2="1280.7905" gradientTransform="matrix(-1 0.0066 0.0066 1 7975.5894 -57.3689)">
					<stop  offset="0" style="stop-color:#233894"/>
					<stop  offset="0.9964" style="stop-color:#DD397A"/>
				</linearGradient>
				<path style="fill:url(#SVGID_00000061462553771608931060000003800188164865725597_);" d="M2065.438,1146.865
					c0,0,4.267,12.87-1.625,34.276l-36.501,135.683c-0.573,2.132,0.608,4.335,2.697,5.047
					c11.636,3.966,49.856,15.089,101.713,10.674c2.611-0.222,4.773-2.108,5.3-4.675c3.173-15.453,13.998-68.175,16.227-79.008
					c8.494-41.278,18.004-85.798-27.406-111.894C2105.258,1146.181,2086.009,1151.725,2065.438,1146.865z"/>
				
					<linearGradient id="SVGID_00000070101586032753100200000000554899473742230202_" gradientUnits="userSpaceOnUse" x1="5838.7925" y1="1287.179" x2="6114.6958" y2="971.5862" gradientTransform="matrix(-0.9941 -0.1087 -0.1087 0.9941 8126.9453 519.906)">
					<stop  offset="0" style="stop-color:#F9B776"/>
					<stop  offset="1" style="stop-color:#F47960"/>
				</linearGradient>
				<path style="fill:url(#SVGID_00000070101586032753100200000000554899473742230202_);" d="M2134.845,1010.063
					c0,0,44.594,35.862,56.32,85.659c11.726,49.797-63.413,56.319-63.413,56.319s-10.396-11.239-22.454-6.977
					c-12.058,4.262-1.259-19.887,12.927-20.052c14.186-0.165,7.795,11.157,27.715,1.744c19.405-9.169,31.046-36.748-19.496-77.455
					c-2.93-2.359-5.286-5.39-6.731-8.863C2109.631,1016.204,2117.059,1000.093,2134.845,1010.063z"/>
			</g>
			<g>
				
					<linearGradient id="SVGID_00000113316495571189806290000003327234653712493482_" gradientUnits="userSpaceOnUse" x1="3863.7747" y1="2426.2659" x2="3899.7844" y2="2508.196" gradientTransform="matrix(0.9776 -0.2106 0.2106 0.9776 -2522.7271 -266.7475)">
					<stop  offset="0" style="stop-color:#F9B776"/>
					<stop  offset="1" style="stop-color:#F47960"/>
				</linearGradient>
				<path style="fill:url(#SVGID_00000113316495571189806290000003327234653712493482_);" d="M1750.249,1265.148
					c0,0,22.064,59.452,55.623,52.157c0,0,3.46,20.23-2.189,22.616c0,0-50.338,1.459-55.339-67.674L1750.249,1265.148z"/>
				<g>
					
						<linearGradient id="SVGID_00000037652523904454148580000008671323640329230983_" gradientUnits="userSpaceOnUse" x1="3864.7227" y1="2432.4778" x2="3903.9302" y2="2521.6836" gradientTransform="matrix(0.9776 -0.2106 0.2106 0.9776 -2522.7271 -266.7475)">
						<stop  offset="0" style="stop-color:#F9B776"/>
						<stop  offset="1" style="stop-color:#F47960"/>
					</linearGradient>
					<path style="fill:url(#SVGID_00000037652523904454148580000008671323640329230983_);" d="M1751.196,1279.079
						c-0.096,1.031,3.736,1.743,4.956-2.65c-0.335-1.907-0.931-10.259-2.393-11.557c-7.789-6.911-21.677-14.685-21.677-14.685
						c-1.553,2.371,0.484,3.933,0.484,3.933l6.933,4.679c-0.723,2.395-1.778,4.513-1.898,7.248c-0.09,2.071,0.675,4.098,2.049,5.669
						c1.38,1.577,3.237,3.612,4.912,5.157C1747.73,1279.799,1751.196,1279.079,1751.196,1279.079z"/>
					
						<linearGradient id="SVGID_00000060715964156943184250000007547183863527931818_" gradientUnits="userSpaceOnUse" x1="-6628.6704" y1="1268.5831" x2="-6618.3032" y2="1268.5831" gradientTransform="matrix(-1 0 0 1 -4876.8154 0)">
						<stop  offset="0" style="stop-color:#F9B776"/>
						<stop  offset="1" style="stop-color:#F47960"/>
					</linearGradient>
					<path style="fill:url(#SVGID_00000060715964156943184250000007547183863527931818_);" d="M1747.524,1275.635
						c-0.939-2.288-3.643-8.506-4.866-9.784c-0.831-0.869-1.213-1.657-1.167-2.41c0.039-0.628,0.369-1.188,1.01-1.711l0.242-0.198
						l6.487,3.468l2.624,4.11l-0.791,0.505l-2.492-3.903l-5.704-3.05c-0.278,0.278-0.422,0.554-0.439,0.836
						c-0.029,0.47,0.276,1.044,0.908,1.704c1.595,1.667,4.916,9.734,5.056,10.077L1747.524,1275.635z"/>
				</g>
				
					<linearGradient id="SVGID_00000066492043398103852020000005945245035292699812_" gradientUnits="userSpaceOnUse" x1="-6651.4453" y1="1218.5477" x2="-6692.6953" y2="1254.9448" gradientTransform="matrix(-1 0 0 1 -4876.8154 0)">
					<stop  offset="0" style="stop-color:#2B3582"/>
					<stop  offset="0.6502" style="stop-color:#150E42"/>
				</linearGradient>
				<path style="fill-rule:evenodd;clip-rule:evenodd;fill:url(#SVGID_00000066492043398103852020000005945245035292699812_);" d="
					M1805.55,1240.304c0,0,10.655-9.624-3.045-20.057c-12.871-9.802-22.279,3.352-18.013,11.816c0.302,0.6-0.039,1.328-0.696,1.471
					c-1.124,0.246-2.097,1.366-0.323,5.321c0.152,0.34,0.104,0.738-0.119,1.037c-1.579,2.116-6.842,10.595,9.032,11.891
					c0.286,0.023,0.572-0.075,0.785-0.267L1805.55,1240.304z"/>
				
					<linearGradient id="SVGID_00000057847816518640677600000012278921744012577677_" gradientUnits="userSpaceOnUse" x1="-7373.2236" y1="34.213" x2="-7339.7427" y2="34.213" gradientTransform="matrix(-0.9842 -0.1769 -0.1769 0.9842 -5356.0591 -78.9985)">
					<stop  offset="0" style="stop-color:#2B3582"/>
					<stop  offset="0.6502" style="stop-color:#150E42"/>
				</linearGradient>
				<path style="fill-rule:evenodd;clip-rule:evenodd;fill:url(#SVGID_00000057847816518640677600000012278921744012577677_);" d="
					M1861.518,1254.429c0,0,1.023-12.281,7.595-16.284c6.573-4.004,19.331-7.407,24.677,5.945c2.55,6.369,1.705,9.399,0.125,10.827
					c-1.441,1.301-1.603,3.325-0.651,5.025c1.083,1.933,1.227,4.324-2.036,6.494c-0.963,0.64-1.61,1.583-1.815,2.652
					c-0.852,4.452-5.409,15.134-29.757,3.455L1861.518,1254.429z"/>
				
					<linearGradient id="SVGID_00000128448112701047088810000012036804502478470026_" gradientUnits="userSpaceOnUse" x1="-5576.6201" y1="-1157.8802" x2="-5757.4272" y2="-1031.7125" gradientTransform="matrix(-0.9842 -0.1769 -0.1769 0.9842 -5356.0591 -78.9985)">
					<stop  offset="0" style="stop-color:#2B3582"/>
					<stop  offset="0.6502" style="stop-color:#150E42"/>
				</linearGradient>
				<path style="fill-rule:evenodd;clip-rule:evenodd;fill:url(#SVGID_00000128448112701047088810000012036804502478470026_);" d="
					M1833.367,1232.348c4.792-2.055,14.942-4.147,22.837,9.662c0.551,0.964,1.348,1.761,2.32,2.297
					c4.704,2.594,18.32,12.02,5.922,29.031c-0.567,0.778-0.942,1.68-1.079,2.634c-0.415,2.883-1.786,9.269-5.91,10.845
					c-1.232,0.471-2.268,1.337-2.952,2.464c-2.772,4.563-10.674,14.16-23.969,4.136c-0.677-0.511-1.457-0.873-2.286-1.056
					l-18.361-4.044c-0.977-0.215-1.989-0.174-2.949,0.106c-2.245,0.656-6.781,1.23-8.468-4.05c-0.344-1.076-0.981-2.033-1.842-2.764
					c-3.078-2.617-9.614-9.713-4.67-19.662c0.554-1.114,0.756-2.366,0.565-3.595c-0.579-3.726-0.883-12,6.85-15.569
					c1.162-0.537,2.13-1.411,2.72-2.547c2.579-4.964,10.984-17.681,25.793-8.355
					C1829.535,1232.918,1831.579,1233.115,1833.367,1232.348z"/>
				
					<linearGradient id="SVGID_00000181048402459447194450000011377672442177921465_" gradientUnits="userSpaceOnUse" x1="-6687.916" y1="1531.5569" x2="-6655.8521" y2="1531.5569" gradientTransform="matrix(-1 0 0 1 -4876.8154 0)">
					<stop  offset="0" style="stop-color:#CB236D"/>
					<stop  offset="1" style="stop-color:#4C246D"/>
				</linearGradient>
				<path style="fill-rule:evenodd;clip-rule:evenodd;fill:url(#SVGID_00000181048402459447194450000011377672442177921465_);" d="
					M1808.429,1524.127l2.672,3.088l-1.833,6.705c-0.481,1.758-1.927,3.081-3.72,3.41c-5.967,1.093-19.499,3.069-26.461,0.073
					c0,0-2.165-14.509,21.821-10.187L1808.429,1524.127z"/>
				
					<linearGradient id="SVGID_00000138531055116705348410000018107209409504831406_" gradientUnits="userSpaceOnUse" x1="-6728.501" y1="1541.9531" x2="-6710.6665" y2="1541.9531" gradientTransform="matrix(-1 0 0 1 -4876.8154 0)">
					<stop  offset="0" style="stop-color:#CB236D"/>
					<stop  offset="1" style="stop-color:#4C246D"/>
				</linearGradient>
				<path style="fill-rule:evenodd;clip-rule:evenodd;fill:url(#SVGID_00000138531055116705348410000018107209409504831406_);" d="
					M1850.263,1531.833l1.423,3.492l-0.577,12.574c-0.081,1.767-1.507,3.25-3.428,3.547c-2.623,0.404-6.438,0.814-10.027,0.536
					c-2.81-0.217-4.571-2.857-3.471-5.213l4.233-9.07c0.633-1.357,1.79-2.398,3.206-2.887L1850.263,1531.833z"/>
				
					<linearGradient id="SVGID_00000165917258067342480630000017694504642948261529_" gradientUnits="userSpaceOnUse" x1="-6708.0039" y1="1339.5466" x2="-6705.4243" y2="1313.3235" gradientTransform="matrix(-1 0 0 1 -4876.8154 0)">
					<stop  offset="0" style="stop-color:#F9B776"/>
					<stop  offset="1" style="stop-color:#F47960"/>
				</linearGradient>
				<path style="fill-rule:evenodd;clip-rule:evenodd;fill:url(#SVGID_00000165917258067342480630000017694504642948261529_);" d="
					M1838.085,1286.707l2.731,27.053c0,0-14.706,4.987-24.391-0.642l2.618-27.163L1838.085,1286.707z"/>
				
					<linearGradient id="SVGID_00000122001851350132689200000003348656126184419502_" gradientUnits="userSpaceOnUse" x1="-6738.4878" y1="1484.6262" x2="-6712.0239" y2="1484.6262" gradientTransform="matrix(-1 0 0 1 -4876.8154 0)">
					<stop  offset="0" style="stop-color:#F9B776"/>
					<stop  offset="1" style="stop-color:#F47960"/>
				</linearGradient>
				<path style="fill-rule:evenodd;clip-rule:evenodd;fill:url(#SVGID_00000122001851350132689200000003348656126184419502_);" d="
					M1861.673,1434.82c0,0-6.981,77.822-11.59,101.633c0,0-3.449,2.513-8.609-0.727l-6.265-103.854L1861.673,1434.82z"/>
				
					<linearGradient id="SVGID_00000106119954708506994910000016533345936788859296_" gradientUnits="userSpaceOnUse" x1="-6707.4683" y1="1482.0331" x2="-6676.3809" y2="1482.0331" gradientTransform="matrix(-1 0 0 1 -4876.8154 0)">
					<stop  offset="0" style="stop-color:#F9B776"/>
					<stop  offset="1" style="stop-color:#F47960"/>
				</linearGradient>
				<path style="fill-rule:evenodd;clip-rule:evenodd;fill:url(#SVGID_00000106119954708506994910000016533345936788859296_);" d="
					M1830.653,1439.492l-19.123,87.151c0,0-5.203,5.395-11.964,0l3.296-91.617L1830.653,1439.492z"/>
				
					<linearGradient id="SVGID_00000098925745203838537050000015554412291647552924_" gradientUnits="userSpaceOnUse" x1="-6807.4219" y1="1445.6652" x2="-6720.8423" y2="1326.7059" gradientTransform="matrix(-1 0 0 1 -4876.8154 0)">
					<stop  offset="0" style="stop-color:#F9B776"/>
					<stop  offset="1" style="stop-color:#F47960"/>
				</linearGradient>
				<path style="fill-rule:evenodd;clip-rule:evenodd;fill:url(#SVGID_00000098925745203838537050000015554412291647552924_);" d="
					M1854.845,1315.798l4.785,0.534c9.263,9.933,26.255,78.187,32.384,92.701l24.941-4.074c0.978-0.201,1.776,0.77,1.398,1.694
					c-1.107,2.706-5.261,10.512-21.449,10.512c-7.563,0,4.242,5.869-0.281,7.883c0,0-9.939-3.578-9.955-9.873
					c0,0-28.493-64.899-34.351-71.73C1846.458,1336.613,1854.845,1315.798,1854.845,1315.798z"/>
				
					<linearGradient id="SVGID_00000075865968607104494930000015585185988985326724_" gradientUnits="userSpaceOnUse" x1="1805.3392" y1="1499.1018" x2="1827.3391" y2="1347.1021">
					<stop  offset="0" style="stop-color:#A737D5"/>
					<stop  offset="1" style="stop-color:#EF497A"/>
				</linearGradient>
				<path style="fill-rule:evenodd;clip-rule:evenodd;fill:url(#SVGID_00000075865968607104494930000015585185988985326724_);" d="
					M1859.63,1316.331c0,0-25.347-9.391-56.986,0.33c0,0-3.547,23.954-1.722,35.354l54.52,1.974L1859.63,1316.331z"/>
				
					<linearGradient id="SVGID_00000005231608878888927600000002823636094121700026_" gradientUnits="userSpaceOnUse" x1="1823.6656" y1="1501.7544" x2="1845.6658" y2="1349.7539">
					<stop  offset="0" style="stop-color:#A737D5"/>
					<stop  offset="1" style="stop-color:#EF497A"/>
				</linearGradient>
				<path style="fill-rule:evenodd;clip-rule:evenodd;fill:url(#SVGID_00000005231608878888927600000002823636094121700026_);" d="
					M1801.668,1359.503c0,0-17.424,55.936-20.01,93.205c-0.133,1.917,1.309,3.571,3.226,3.708c3.626,0.26,10.021,1.153,18.708,4.046
					c14.087,4.691,25.752,3.145,36.283,0.12c8.266-2.374,28.939-4.45,37.449-5.233c2.027-0.187,3.458-2.066,3.098-4.07
					c-2.475-13.789-11.874-62.732-26.134-96L1801.668,1359.503z"/>
				
					<linearGradient id="SVGID_00000104671888922857647200000015009676111636814508_" gradientUnits="userSpaceOnUse" x1="1725.3895" y1="1158.3617" x2="1860.3896" y2="1416.3616">
					<stop  offset="0" style="stop-color:#233894"/>
					<stop  offset="0.9964" style="stop-color:#DD397A"/>
				</linearGradient>
				<path style="fill-rule:evenodd;clip-rule:evenodd;fill:url(#SVGID_00000104671888922857647200000015009676111636814508_);" d="
					M1800.745,1350.724l0.923,8.778c0,0,16.766,0.064,53.807-1.181l0.193-6.349
					C1855.667,1351.972,1814.632,1352.775,1800.745,1350.724z"/>
				
					<linearGradient id="SVGID_00000045588541312635581590000010111781468772001199_" gradientUnits="userSpaceOnUse" x1="-7316.2144" y1="-20.2907" x2="-7312.7793" y2="-71.3882" gradientTransform="matrix(-0.9852 -0.1732 -0.1896 1.0333 -5391.6836 57.7071)">
					<stop  offset="0" style="stop-color:#F9B776"/>
					<stop  offset="1" style="stop-color:#F47960"/>
				</linearGradient>
				<path style="fill-rule:evenodd;clip-rule:evenodd;fill:url(#SVGID_00000045588541312635581590000010111781468772001199_);" d="
					M1800.865,1260.479c-4.21,16.266-2.981,34.96,16.157,39.154c13.241,2.902,27.155-10.589,31.365-26.856
					c4.21-16.266-2.998-28.654-16.12-32.05C1819.144,1237.33,1805.075,1244.212,1800.865,1260.479z"/>
				
					<linearGradient id="SVGID_00000181059763915457472810000016157802742520362427_" gradientUnits="userSpaceOnUse" x1="-7282.771" y1="90.2744" x2="-7279.3315" y2="39.1164" gradientTransform="matrix(-0.9842 -0.1769 -0.1769 0.9842 -5356.0591 -78.9985)">
					<stop  offset="0" style="stop-color:#F9B776"/>
					<stop  offset="1" style="stop-color:#F47960"/>
				</linearGradient>
				<path style="fill-rule:evenodd;clip-rule:evenodd;fill:url(#SVGID_00000181059763915457472810000016157802742520362427_);" d="
					M1802.305,1265.496c0,0-0.627-9.836-5.532-6.802c-4.906,3.033,1.896,14.821,4.928,15.512
					C1804.732,1274.897,1802.305,1265.496,1802.305,1265.496z"/>
				
					<linearGradient id="SVGID_00000124141140983054958320000009441467151730962820_" gradientUnits="userSpaceOnUse" x1="-7331.0293" y1="87.03" x2="-7327.5903" y2="35.8712" gradientTransform="matrix(-0.9842 -0.1769 -0.1769 0.9842 -5356.0591 -78.9985)">
					<stop  offset="0" style="stop-color:#F9B776"/>
					<stop  offset="1" style="stop-color:#F47960"/>
				</linearGradient>
				<path style="fill-rule:evenodd;clip-rule:evenodd;fill:url(#SVGID_00000124141140983054958320000009441467151730962820_);" d="
					M1844.272,1276.84c0,0,1.467-7.503,6.783-4.035c5.315,3.468-4.826,15.726-11.077,13L1844.272,1276.84z"/>
				
					<linearGradient id="SVGID_00000021092551991895571980000010270088866877141942_" gradientUnits="userSpaceOnUse" x1="-5580.0186" y1="-1162.745" x2="-5760.8252" y2="-1036.5775" gradientTransform="matrix(-0.9842 -0.1769 -0.1769 0.9842 -5356.0591 -78.9985)">
					<stop  offset="0" style="stop-color:#2B3582"/>
					<stop  offset="0.6502" style="stop-color:#150E42"/>
				</linearGradient>
				<path style="fill-rule:evenodd;clip-rule:evenodd;fill:url(#SVGID_00000021092551991895571980000010270088866877141942_);" d="
					M1852.139,1270.875c0,0-15.218,16.475-23.124-17.712c0,0-7.89,10.212-11.491,1.179c0,0-15.707,5.384-17.443-1.224
					c-1.736-6.607,21.235-24.523,39.708-11.665C1858.261,1254.311,1852.139,1270.875,1852.139,1270.875z"/>
			</g>
			<g>
				
					<linearGradient id="SVGID_00000150825445087534793320000011353977844236276667_" gradientUnits="userSpaceOnUse" x1="3173.156" y1="2190.1057" x2="3223.5427" y2="2304.7466" gradientTransform="matrix(0.9776 -0.2106 0.2106 0.9776 -1433.3365 -266.7475)">
					<stop  offset="0" style="stop-color:#F9B776"/>
					<stop  offset="1" style="stop-color:#F47960"/>
				</linearGradient>
				<path style="fill:url(#SVGID_00000150825445087534793320000011353977844236276667_);" d="M2099.188,1176.083
					c0,0,48.356,69.244,89.502,78.655c0,0-3.272,19.78-10.443,22.808c0,0-39.396-9.412-81.478-92.451L2099.188,1176.083z"/>
				<g>
					
						<linearGradient id="SVGID_00000090986333976846377880000009008262891293755299_" gradientUnits="userSpaceOnUse" x1="3168.9946" y1="2202.2385" x2="3218.7681" y2="2315.4841" gradientTransform="matrix(0.9776 -0.2106 0.2106 0.9776 -1433.3365 -266.7475)">
						<stop  offset="0" style="stop-color:#F9B776"/>
						<stop  offset="1" style="stop-color:#F47960"/>
					</linearGradient>
					<path style="fill:url(#SVGID_00000090986333976846377880000009008262891293755299_);" d="M2107.505,1195.599
						c-0.122,1.308,4.743,2.212,6.291-3.365c-0.425-2.421-1.181-13.024-3.038-14.672c-9.887-8.773-27.519-18.643-27.519-18.643
						c-1.972,3.011,0.614,4.993,0.614,4.993l8.801,5.94c-0.918,3.041-2.258,5.729-2.409,9.201c-0.115,2.629,0.856,5.203,2.602,7.197
						c1.751,2.001,4.109,4.585,6.235,6.548C2103.105,1196.513,2107.505,1195.599,2107.505,1195.599z"/>
					
						<linearGradient id="SVGID_00000076566142362248670360000009489115023856903599_" gradientUnits="userSpaceOnUse" x1="-5895.6641" y1="1182.3237" x2="-5882.7266" y2="1182.3237" gradientTransform="matrix(-1 0 0 1 -3787.4246 0)">
						<stop  offset="0" style="stop-color:#F9B776"/>
						<stop  offset="1" style="stop-color:#F47960"/>
					</linearGradient>
					<path style="fill:url(#SVGID_00000076566142362248670360000009489115023856903599_);" d="M2102.956,1191.18
						c-0.042-0.104-4.315-10.487-6.202-12.459c-1.03-1.077-1.504-2.048-1.447-2.968c0.047-0.761,0.452-1.443,1.238-2.085l0.245-0.2
						l8.136,4.35l3.314,5.19l-0.8,0.511l-3.181-4.981l-7.348-3.928c-0.416,0.396-0.632,0.791-0.657,1.202
						c-0.039,0.632,0.36,1.39,1.186,2.254c2.01,2.101,6.216,12.321,6.395,12.755L2102.956,1191.18z"/>
				</g>
				
					<linearGradient id="SVGID_00000053543830268322404590000000660078398363345077_" gradientUnits="userSpaceOnUse" x1="3257.9077" y1="-678.6357" x2="3294.5603" y2="-678.6357" gradientTransform="matrix(0.4933 0.8699 0.8699 -0.4933 1291.3453 -1718.8345)">
					<stop  offset="0" style="stop-color:#CB236D"/>
					<stop  offset="1" style="stop-color:#4C246D"/>
				</linearGradient>
				<path style="fill-rule:evenodd;clip-rule:evenodd;fill:url(#SVGID_00000053543830268322404590000000660078398363345077_);" d="
					M2303.766,1454.012c2.167-1.945,5.592-4.801,8.765-6.514c0.809-0.437,1.805-0.229,2.366,0.498
					c3.299,4.271,14.311,19.059,16.77,29.236c0.204,0.844-0.227,1.708-0.997,2.109c-2.838,1.48-10.327,3.078-21.002-11.775
					l-6.416-9.063C2302.254,1457.094,2302.48,1455.166,2303.766,1454.012z"/>
				
					<linearGradient id="SVGID_00000131330102492466841880000008327105572463618947_" gradientUnits="userSpaceOnUse" x1="-1896.7227" y1="1333.8168" x2="-1898.9165" y2="1554.2936" gradientTransform="matrix(-1 0 0 1 378.4521 0)">
					<stop  offset="0.4532" style="stop-color:#F9B776"/>
					<stop  offset="1" style="stop-color:#F47960"/>
				</linearGradient>
				<path style="fill-rule:evenodd;clip-rule:evenodd;fill:url(#SVGID_00000131330102492466841880000008327105572463618947_);" d="
					M2238.693,1420.811c0,0,3.588,48.435,23.321,64.581c17.277,14.135,44.179-11.607,50.609-18.235
					c0.937-0.966,1.388-2.336,1.121-3.655c-0.644-3.184-2.19-5.657-4.902-7.21c-1.908-1.093-4.308-0.843-5.922,0.65
					c-5.357,4.951-19.389,16.965-26.554,14.099c-8.969-3.588-14.351-50.229-14.351-50.229H2238.693z"/>
				<g>
					
						<linearGradient id="SVGID_00000040539425246253469900000010186344126811323787_" gradientUnits="userSpaceOnUse" x1="2343.0471" y1="1168.8376" x2="2260.7971" y2="1302.5874">
						<stop  offset="0" style="stop-color:#F9B776"/>
						<stop  offset="1" style="stop-color:#F47960"/>
					</linearGradient>
					<path style="fill-rule:evenodd;clip-rule:evenodd;fill:url(#SVGID_00000040539425246253469900000010186344126811323787_);" d="
						M2285.335,1273.711c0,0,26.908-12.557,41.693-81.392l-7.358-3.771c0,0-28.564,56.209-43.304,69.018
						C2261.624,1270.374,2285.335,1273.711,2285.335,1273.711z"/>
					
						<linearGradient id="SVGID_00000090295621913286723400000006739441047164751282_" gradientUnits="userSpaceOnUse" x1="2336.3601" y1="1164.7256" x2="2254.1101" y2="1298.4756">
						<stop  offset="0" style="stop-color:#F9B776"/>
						<stop  offset="1" style="stop-color:#F47960"/>
					</linearGradient>
					<path style="fill-rule:evenodd;clip-rule:evenodd;fill:url(#SVGID_00000090295621913286723400000006739441047164751282_);" d="
						M2321.334,1196.834l5.693-4.515c0,0,7.766-7.54,10.493-13.947c2.726-6.407-5.277-12.182-8.296-13.543
						c-3.019-1.361-4.674,1.507-4.073,7.947c0,0-6.877,7.996-5.887,19.652L2321.334,1196.834z"/>
				</g>
				
					<linearGradient id="SVGID_00000134954792476742177510000012192851903357347249_" gradientUnits="userSpaceOnUse" x1="-1861.5203" y1="1544.0985" x2="-1824.8646" y2="1544.0985" gradientTransform="matrix(-1 -0.0047 -0.0047 1 377.0641 1.142)">
					<stop  offset="0" style="stop-color:#CB236D"/>
					<stop  offset="1" style="stop-color:#4C246D"/>
				</linearGradient>
				<path style="fill-rule:evenodd;clip-rule:evenodd;fill:url(#SVGID_00000134954792476742177510000012192851903357347249_);" d="
					M2229.307,1545.386c0,0,2.137,7.937,1.99,13.799c-0.023,0.921-0.706,1.687-1.619,1.813c-5.357,0.739-23.647,2.931-33.694,0.005
					c-0.809-0.236-1.363-0.99-1.338-1.833c0.092-3.154,2.312-10.556,20.664-12.445L2229.307,1545.386z"/>
				
					<linearGradient id="SVGID_00000084490110873371720390000002971355443632544666_" gradientUnits="userSpaceOnUse" x1="-1649.5619" y1="1528.3651" x2="-1651.7557" y2="1748.8422" gradientTransform="matrix(-0.9977 0.0685 0.0685 0.9977 458.6043 -7.6026)">
					<stop  offset="0.4532" style="stop-color:#F9B776"/>
					<stop  offset="1" style="stop-color:#F47960"/>
				</linearGradient>
				<path style="fill-rule:evenodd;clip-rule:evenodd;fill:url(#SVGID_00000084490110873371720390000002971355443632544666_);" d="
					M2197.73,1423.988c-2.259,1.475,14.78,121.125,18.908,121.994c0,0,4.722,4.388,12.009-0.613
					c-4.207-38.996-6.768-78.549-4.503-118.973L2197.73,1423.988z"/>
				
					<linearGradient id="SVGID_00000151516410562953819980000009776586891965389718_" gradientUnits="userSpaceOnUse" x1="-1706.3392" y1="1519.5149" x2="-1632.0618" y2="1519.5149" gradientTransform="matrix(-0.9977 0.0685 0.0685 0.9977 458.6043 -7.6026)">
					<stop  offset="0" style="stop-color:#2B3582"/>
					<stop  offset="0.5025" style="stop-color:#160F44"/>
					<stop  offset="1" style="stop-color:#150E42"/>
				</linearGradient>
				<path style="fill-rule:evenodd;clip-rule:evenodd;fill:url(#SVGID_00000151516410562953819980000009776586891965389718_);" d="
					M2257.491,1351.367c0,0-55.567,2.542-68.801,7.188c0,0,1.631,45.177,7.063,72.939c0.211,1.077,1.025,1.93,2.094,2.178
					c3.565,0.827,12.541,2.009,26.767-1.975c1.264-0.354,2.105-1.555,2.016-2.865l-1.468-17.995
					c-0.083-1.208,0.829-2.255,2.037-2.338l1.488-0.225c1.26-0.087,2.331,0.906,2.343,2.168l2.809,18.25
					c0.011,1.182,0.764,2.226,1.884,2.605c4.177,1.415,15.046,4.056,29.379-0.311c1.155-0.352,1.956-1.417,1.964-2.624
					C2267.21,1406.21,2263.232,1379.716,2257.491,1351.367z"/>
				
					<linearGradient id="SVGID_00000157988037866490816660000012977274479143033232_" gradientUnits="userSpaceOnUse" x1="-1707.1168" y1="1471.5847" x2="-1686.5305" y2="1499.657" gradientTransform="matrix(-0.9977 0.0685 0.0685 0.9977 458.6043 -7.6026)">
					<stop  offset="0" style="stop-color:#2B3582"/>
					<stop  offset="1" style="stop-color:#150E42"/>
				</linearGradient>
				<path style="fill-rule:evenodd;clip-rule:evenodd;fill:url(#SVGID_00000157988037866490816660000012977274479143033232_);" d="
					M2236.662,1355.263c0,0,7.023,19.529,23.974,20.882l-3.748-22.27C2256.888,1353.875,2243.76,1353.777,2236.662,1355.263z"/>
				
					<linearGradient id="SVGID_00000109020733924404706000000010317079912057197746_" gradientUnits="userSpaceOnUse" x1="-1832.5313" y1="1200.5529" x2="-1857.1458" y2="1353.2749" gradientTransform="matrix(-1 0 0 1 378.4521 0)">
					<stop  offset="0" style="stop-color:#53D8FF"/>
					<stop  offset="1" style="stop-color:#3840F7"/>
				</linearGradient>
				<path style="fill-rule:evenodd;clip-rule:evenodd;fill:url(#SVGID_00000109020733924404706000000010317079912057197746_);" d="
					M2283.541,1248.596c0,0-25.115,16.145-55.611,14.351c-25.433-1.496-40.885-7.983-49.477-15.299
					c-3.073-2.616-7.441-3.043-10.835-0.859c-3.713,2.389-8.656,6.106-13.851,11.533c-1.305,1.362-1.57,3.449-0.577,5.053
					c7.409,11.967,15.307,20.335,23.682,25.201c2.835,3.124,4.355,7.222,4.244,11.439l-1.547,58.786
					c-0.043,1.63,1.089,3.049,2.691,3.353c11.148,2.115,53.456,9.481,79.755,4.84v-63.404c0-4.714,2.607-9.001,6.728-11.289
					c5.523-3.067,13.749-9.073,21.975-20.383L2283.541,1248.596z"/>
				
					<linearGradient id="SVGID_00000173852062224534068930000002658488249951589802_" gradientUnits="userSpaceOnUse" x1="-2558.7395" y1="460.854" x2="-2569.5483" y2="374.3833" gradientTransform="matrix(-0.9402 -0.3405 -0.3405 0.9402 -75.341 -53.91)">
					<stop  offset="0" style="stop-color:#F9B776"/>
					<stop  offset="1" style="stop-color:#F47960"/>
				</linearGradient>
				<path style="fill-rule:evenodd;clip-rule:evenodd;fill:url(#SVGID_00000173852062224534068930000002658488249951589802_);" d="
					M2190.371,1225.393c0,0,2.139-6.033-3.312-7.108c-5.45-1.075-0.251,14.944-0.251,14.944L2190.371,1225.393z"/>
				
					<linearGradient id="SVGID_00000090284728407482179330000008982015778901555076_" gradientUnits="userSpaceOnUse" x1="-1882.8621" y1="1250.3344" x2="-1791.8192" y2="1264.5941" gradientTransform="matrix(-1 0 0 1 378.4521 0)">
					<stop  offset="0" style="stop-color:#F9B776"/>
					<stop  offset="0.7143" style="stop-color:#F47960"/>
				</linearGradient>
				<path style="fill-rule:evenodd;clip-rule:evenodd;fill:url(#SVGID_00000090284728407482179330000008982015778901555076_);" d="
					M2233.95,1241.764l2.153,23.643c0,0-12.479,7.291-23.215,0.917l1.907-20.651L2233.95,1241.764z"/>
				
					<linearGradient id="SVGID_00000181778617921297716770000006886656987113522601_" gradientUnits="userSpaceOnUse" x1="-2669.7114" y1="114.364" x2="-2697.3823" y2="61.4878" gradientTransform="matrix(-0.9011 -0.4336 -0.4336 0.9011 -153.2839 -33.5377)">
					<stop  offset="0" style="stop-color:#2B3582"/>
					<stop  offset="0.6502" style="stop-color:#150E42"/>
				</linearGradient>
				<path style="fill-rule:evenodd;clip-rule:evenodd;fill:url(#SVGID_00000181778617921297716770000006886656987113522601_);" d="
					M2187.601,1225.336c-2.491-1.649-4.552-3.549-5.8-5.814c-1.951-3.541-3.943-7.758-2.287-11.446
					c1.11-2.473,3.764-4.358,3.772-7.069c0.006-1.995-1.469-3.675-1.962-5.608c-0.778-3.05,1.094-6.296,3.725-8.023
					c2.631-1.728,5.861-2.24,8.993-2.544c1.457-0.141,2.974-0.263,4.238-1.002c1.472-0.86,2.367-2.414,3.5-3.688
					c4.446-5.002,13.364-4.938,17.737,0.128c2.255,2.612,3.479,6.304,6.553,7.87c1.69,0.86,3.658,0.909,5.517,1.285
					c4.279,0.867,8.005,3.502,11.137,6.543c4.686,4.55,8.43,9.294,9.644,15.831c0.644,3.467,0.645,7.017,0.645,10.543
					c-0.001,4.484-0.043,9.153-2.033,13.171c-1.964,3.964-5.655,6.918-7.347,11.005c-0.55,1.328-0.881,2.761-1.65,3.976
					c-0.769,1.215-2.156,2.201-3.569,1.933c-1.696-0.322-2.556-2.154-3.466-3.621c-4.507-7.271-19.534-10.599-27.049-14.212
					C2202.25,1231.876,2193.654,1229.344,2187.601,1225.336z"/>
				
					<linearGradient id="SVGID_00000134217921880944177930000013389245998484704409_" gradientUnits="userSpaceOnUse" x1="-2586.0178" y1="456.647" x2="-2594.5962" y2="388.0192" gradientTransform="matrix(-0.9402 -0.3405 -0.3405 0.9402 -75.341 -53.91)">
					<stop  offset="0" style="stop-color:#F9B776"/>
					<stop  offset="1" style="stop-color:#F47960"/>
				</linearGradient>
				<path style="fill-rule:evenodd;clip-rule:evenodd;fill:url(#SVGID_00000134217921880944177930000013389245998484704409_);" d="
					M2197.963,1205.368c0,0-26.031,39.224,0.864,51.239c25.384,11.339,36.08-14.707,36.08-14.707s11.162-11.565,7.413-20.469
					C2238.571,1212.529,2204.308,1200.495,2197.963,1205.368z"/>
				
					<linearGradient id="SVGID_00000120528665300780449910000003785991040196236977_" gradientUnits="userSpaceOnUse" x1="-2583.842" y1="424.9851" x2="-2609.0027" y2="376.9058" gradientTransform="matrix(-0.9402 -0.3405 -0.3405 0.9402 -75.341 -53.91)">
					<stop  offset="0" style="stop-color:#2B3582"/>
					<stop  offset="0.6502" style="stop-color:#150E42"/>
				</linearGradient>
				<path style="fill-rule:evenodd;clip-rule:evenodd;fill:url(#SVGID_00000120528665300780449910000003785991040196236977_);" d="
					M2237.615,1233.954c-1.457-0.318-2.89-1.258-4.139-3.019c-1.849-2.609-2.236-5.959-3.52-8.888
					c-2.062-4.705-6.508-8.179-11.467-9.519c-4.486-1.213-9.225-0.794-13.871-0.894c-6.326-0.136-20.596-4.723-9.016-10.935
					c8.332-4.469,17.902-0.276,26.16,2.018c7.898,2.193,17.064,6.684,22.236,13.34c2.229,2.869,3.568,6.851,2.788,10.478
					C2245.834,1230.965,2241.637,1234.832,2237.615,1233.954z"/>
				
					<linearGradient id="SVGID_00000088855445159192243850000017569109582171610780_" gradientUnits="userSpaceOnUse" x1="-2611.3679" y1="458.9791" x2="-2619.811" y2="391.4344" gradientTransform="matrix(-0.9402 -0.3405 -0.3405 0.9402 -75.341 -53.91)">
					<stop  offset="0" style="stop-color:#F9B776"/>
					<stop  offset="1" style="stop-color:#F47960"/>
				</linearGradient>
				<path style="fill-rule:evenodd;clip-rule:evenodd;fill:url(#SVGID_00000088855445159192243850000017569109582171610780_);" d="
					M2231.566,1245.402l4.526-12.442c0,0,8.745-4.018,7.594,2.75S2234.675,1246.218,2231.566,1245.402z"/>
			</g>
		</g>
	</g>
</g>
</svg>
